<svg width="90" height="90" viewBox="0 0 90 90" fill="none" xmlns="http://www.w3.org/2000/svg">
<path d="M45.0012 1.5C36.5907 1.51187 28.5274 4.85511 22.576 10.798C16.6247 16.741 13.27 24.7995 13.2462 33.21C13.2298 39.9744 15.3914 46.5645 19.4112 52.005L43.5012 87.735C43.672 87.9734 43.8971 88.1677 44.158 88.3018C44.4188 88.4358 44.7079 88.5057 45.0012 88.5057C45.2945 88.5057 45.5835 88.4358 45.8444 88.3018C46.1053 88.1677 46.3304 87.9734 46.5012 87.735L70.5012 52.005C74.521 46.5645 76.6826 39.9744 76.6662 33.21C76.6425 24.8151 73.3002 16.7701 67.3683 10.8297C61.4363 4.88933 53.3961 1.53561 45.0012 1.5V1.5Z" stroke="#EA028C" stroke-width="1.7" stroke-miterlimit="10"/>
<path d="M44.8636 46.8454C52.2117 46.8454 58.1686 40.8885 58.1686 33.5404C58.1686 26.1922 52.2117 20.2354 44.8636 20.2354C37.5154 20.2354 31.5586 26.1922 31.5586 33.5404C31.5586 40.8885 37.5154 46.8454 44.8636 46.8454Z" stroke="#EA028C" stroke-width="1.7" stroke-miterlimit="10"/>
</svg>
