<svg width="90" height="90" viewBox="0 0 90 90" fill="none" xmlns="http://www.w3.org/2000/svg">
<path d="M76.9342 61.3804C77.395 60.8519 77.6624 60.1824 77.6924 59.4818C77.7224 58.7813 77.5132 58.0914 77.0992 57.5254L73.8142 53.0254C73.4948 52.5681 73.0711 52.1935 72.5781 51.9327C72.085 51.6718 71.5369 51.5322 70.9792 51.5254H69.2392V47.0254C69.2323 46.6237 69.1095 46.2325 68.8856 45.8989C68.6616 45.5653 68.346 45.3035 67.9768 45.1451C67.6076 44.9866 67.2005 44.9382 66.8044 45.0057C66.4083 45.0732 66.0401 45.2536 65.7442 45.5254L64.0642 47.1004H61.4992V46.5454C61.4992 46.2723 61.4452 46.0019 61.3402 45.7498C61.2352 45.4976 61.0814 45.2688 60.8876 45.0764C60.6938 44.884 60.4638 44.7318 60.211 44.6287C59.9581 44.5255 59.6873 44.4734 59.4142 44.4754H57.4192C57.6835 44.117 57.8262 43.6833 57.8262 43.2379C57.8262 42.7925 57.6835 42.3589 57.4192 42.0004L53.7742 37.6354L59.1142 26.8504L68.3692 24.4204L70.9342 24.5104C71.2384 24.5206 71.5412 24.4636 71.8209 24.3434C72.1005 24.2232 72.3503 24.0427 72.5522 23.815C72.7542 23.5872 72.9035 23.3177 72.9894 23.0257C73.0753 22.7336 73.0957 22.4263 73.0492 22.1254L72.5392 19.6354C72.483 19.162 72.2662 18.7221 71.925 18.3891C71.5839 18.0561 71.1389 17.8501 70.6642 17.8054L69.6892 17.7154L70.8892 16.0504C71.0697 15.8005 71.1921 15.5135 71.2476 15.2102C71.303 14.907 71.2899 14.5952 71.2094 14.2977C71.1289 14.0001 70.983 13.7243 70.7823 13.4903C70.5815 13.2564 70.3311 13.0702 70.0492 12.9454L63.5242 10.1254C63.1616 9.97144 62.7624 9.92493 62.3742 9.99141C61.9859 10.0579 61.6249 10.2346 61.3342 10.5004L59.7292 11.8504L56.9992 11.5354C50.4592 2.53541 50.8942 3.09041 50.4892 2.80541C45.9892 -0.284592 46.6642 -0.194592 44.0692 0.600408C43.7634 0.70689 43.4864 0.882642 43.2598 1.11393C43.0332 1.34522 42.8631 1.62577 42.7629 1.93367C42.6627 2.24158 42.635 2.56848 42.6821 2.88884C42.7292 3.2092 42.8497 3.51434 43.0342 3.78041L44.5342 5.77541L38.5342 12.5704L31.3642 16.2754C30.9412 16.5011 30.6039 16.8595 30.4042 17.2954L27.4942 23.5504H27.3142L27.1792 22.6654C27.1234 22.2651 26.9517 21.8898 26.6851 21.5859C26.4186 21.282 26.0689 21.0629 25.6792 20.9554C23.0542 20.2954 23.6542 20.4604 22.6792 20.1904C22.9149 19.9962 23.1047 19.7523 23.235 19.4761C23.3652 19.1999 23.4328 18.8983 23.4328 18.5929C23.4328 18.2875 23.3652 17.9859 23.235 17.7097C23.1047 17.4336 22.9149 17.1896 22.6792 16.9954L19.4992 14.2204C19.2814 14.0403 19.0293 13.9064 18.7582 13.8267C18.4871 13.747 18.2026 13.7233 17.922 13.757C17.6414 13.7906 17.3706 13.881 17.126 14.0226C16.8814 14.1641 16.6682 14.3539 16.4992 14.5804L12.7192 19.6354C12.4673 19.9905 12.332 20.4151 12.332 20.8504C12.332 21.2857 12.4673 21.7103 12.7192 22.0654L16.4992 27.3754L15.9442 27.6154C15.668 27.7311 15.4201 27.9053 15.2178 28.126C15.0154 28.3467 14.8634 28.6087 14.7721 28.8939C14.6808 29.1791 14.6525 29.4808 14.6891 29.778C14.7258 30.0752 14.8264 30.3609 14.9842 30.6154L16.3942 32.7604C16.6002 33.0827 16.8915 33.3416 17.2357 33.5084C17.5799 33.6753 17.9636 33.7434 18.3442 33.7054L20.7442 33.4654L26.6542 43.3504C26.7681 43.5477 26.9322 43.7113 27.1298 43.8245C27.3274 43.9378 27.5514 43.9968 27.7792 43.9954C28.0078 43.9861 28.23 43.9176 28.424 43.7965C28.6181 43.6755 28.7774 43.5061 28.8863 43.3049C28.9952 43.1038 29.05 42.8778 29.0452 42.6491C29.0405 42.4204 28.9764 42.1969 28.8592 42.0004L22.7692 31.8154C22.5661 31.4796 22.2729 31.2074 21.9229 31.0298C21.5729 30.8522 21.1802 30.7762 20.7892 30.8104L18.3592 31.0504L17.5042 29.7304L18.0892 29.4904C18.3657 29.3724 18.6134 29.1961 18.8153 28.9734C19.0173 28.7508 19.1687 28.4871 19.2592 28.2004C19.3544 27.9146 19.3836 27.6108 19.3446 27.3121C19.3057 27.0133 19.1995 26.7273 19.0342 26.4754L14.9992 20.9104L18.2542 16.6504L20.4292 18.5854C20.0477 18.8463 19.7545 19.2169 19.5884 19.6482C19.4223 20.0795 19.3912 20.551 19.4992 21.0004C19.5892 21.3632 19.7764 21.6946 20.0407 21.9589C20.305 22.2232 20.6364 22.4104 20.9992 22.5004C23.2342 23.1454 22.1692 22.8604 24.6592 23.4754L24.8092 24.4204C24.8758 24.8722 25.0899 25.2892 25.4182 25.6066C25.7464 25.9241 26.1705 26.124 26.6242 26.1754L27.6292 26.2804C28.0715 26.3335 28.5191 26.2425 28.9055 26.0209C29.292 25.7993 29.5966 25.4589 29.7742 25.0504L32.5792 18.6004C40.2742 14.6254 39.9142 14.8654 40.2742 14.4754L46.6942 7.27541C47.0082 6.92616 47.194 6.48052 47.2213 6.01169C47.2485 5.54286 47.1156 5.07869 46.8442 4.69541L45.5842 2.94041H45.7942L48.8842 5.07041L54.9892 13.4404C55.1644 13.6797 55.3891 13.8786 55.6479 14.0235C55.9067 14.1684 56.1936 14.256 56.4892 14.2804C61.1692 14.7154 60.2392 15.0004 62.8192 12.7804L68.3392 15.2404L66.9592 17.1454C66.7469 17.4435 66.6168 17.7923 66.582 18.1566C66.5472 18.5209 66.6089 18.888 66.7609 19.2209C66.913 19.5538 67.1499 19.8409 67.448 20.0532C67.7461 20.2655 68.0949 20.3956 68.4592 20.4304L69.9592 20.5654L70.2592 22.0654C67.3342 21.9604 69.7342 21.5404 58.1542 24.5704C57.8683 24.6471 57.6023 24.7846 57.3745 24.9736C57.1467 25.1626 56.9624 25.3986 56.8342 25.6654L51.2092 37.0054C51.0605 37.3214 50.9936 37.6696 51.0146 38.0182C51.0355 38.3668 51.1437 38.7045 51.3292 39.0004L51.4192 39.1204L55.0042 43.4104L54.4642 44.1454C54.2579 44.431 54.1329 44.7671 54.1024 45.1181C54.0719 45.4691 54.137 45.8217 54.2908 46.1387C54.4447 46.4556 54.6815 46.7249 54.9761 46.918C55.2708 47.1111 55.6122 47.2208 55.9642 47.2354H58.7692V47.7904C58.7732 48.3408 58.9946 48.8673 59.3852 49.255C59.7757 49.6428 60.3038 49.8604 60.8542 49.8604H64.1992C65.2042 49.8604 65.6992 49.2904 66.5242 48.4654V52.2004C66.5242 52.4735 66.5782 52.7439 66.6832 52.996C66.7882 53.2482 66.942 53.477 67.1358 53.6694C67.3296 53.8619 67.5596 54.014 67.8124 54.1172C68.0653 54.2203 68.3361 54.2724 68.6092 54.2704C70.9792 54.2704 71.2792 54.1654 71.6092 54.6454L74.8792 59.1454C74.9437 59.2293 74.9786 59.3321 74.9786 59.4379C74.9786 59.5437 74.9437 59.6465 74.8792 59.7304L73.6642 61.1404C73.1542 61.7104 73.3942 61.1404 70.9042 74.2654C70.7954 74.7815 70.8923 75.3196 71.1742 75.7654L73.4992 79.3954L69.1492 87.0004L57.2692 79.3054C56.9768 79.1065 56.6174 79.0319 56.2699 79.098C55.9225 79.1641 55.6156 79.3655 55.4167 79.6579C55.2178 79.9503 55.1432 80.3098 55.2093 80.6572C55.2754 81.0046 55.4768 81.3115 55.7692 81.5104L68.1142 89.5054C68.3508 89.6729 68.62 89.7887 68.9043 89.8456C69.1885 89.9024 69.4815 89.8989 69.7644 89.8352C70.0472 89.7716 70.3135 89.6493 70.546 89.4762C70.7785 89.3031 70.9721 89.0831 71.1142 88.8304L75.9592 80.3854C76.1541 80.0671 76.2573 79.7011 76.2573 79.3279C76.2573 78.9547 76.1541 78.5887 75.9592 78.2704L73.6042 74.4304L75.8242 62.6404L76.9342 61.3804Z" fill="#EA028C"/>
<path d="M52.2908 76.1096L43.4108 70.3496C43.2306 70.2223 43.0807 70.0568 42.9718 69.8649C42.8629 69.6731 42.7977 69.4595 42.7808 69.2396L42.4358 65.5196C42.3896 64.9413 42.2099 64.3816 41.9108 63.8846L31.6208 46.7996C31.4711 46.5556 31.2461 46.3669 30.9798 46.2619C30.7135 46.1569 30.4203 46.1413 30.1444 46.2175C29.8685 46.2937 29.6248 46.4575 29.4501 46.6842C29.2754 46.911 29.1791 47.1884 29.1758 47.4746C29.1771 47.7133 29.2446 47.947 29.3708 48.1496L39.6458 65.2346C39.7407 65.3944 39.7972 65.5742 39.8108 65.7596L40.1708 69.4646C40.2234 70.0633 40.408 70.6428 40.7115 71.1616C41.015 71.6803 41.4297 72.1254 41.9258 72.4646L50.8208 78.2246C50.9656 78.3231 51.1283 78.3921 51.2998 78.4277C51.4712 78.4632 51.648 78.4647 51.82 78.432C51.9921 78.3993 52.1559 78.333 52.3023 78.2369C52.4487 78.1408 52.5748 78.0169 52.6733 77.8721C52.7718 77.7273 52.8408 77.5645 52.8764 77.3931C52.912 77.2216 52.9134 77.0448 52.8807 76.8728C52.848 76.7008 52.7817 76.5369 52.6856 76.3905C52.5895 76.2441 52.4656 76.1181 52.3208 76.0196L52.2908 76.1096Z" fill="#EA028C"/>
</svg>
