<svg width="90" height="90" viewBox="0 0 90 90" fill="none" xmlns="http://www.w3.org/2000/svg">
<path d="M89.4307 15.8101C89.4234 15.7755 89.4234 15.7397 89.4307 15.7051C89.4326 15.6701 89.4326 15.6351 89.4307 15.6001V15.4951L85.8907 6.49512C85.7223 6.05149 85.4222 5.67 85.0308 5.40187C84.6393 5.13373 84.1751 4.9918 83.7007 4.99512H77.1907C77.0126 4.97572 76.8325 4.99405 76.662 5.0489C76.4915 5.10376 76.3345 5.19391 76.2012 5.31349C76.0679 5.43307 75.9613 5.57939 75.8883 5.74292C75.8153 5.90646 75.7776 6.08353 75.7776 6.26262C75.7776 6.4417 75.8153 6.61878 75.8883 6.78231C75.9613 6.94585 76.0679 7.09217 76.2012 7.21175C76.3345 7.33132 76.4915 7.42148 76.662 7.47633C76.8325 7.53119 77.0126 7.54951 77.1907 7.53012H83.4907L86.2957 14.7301H59.7307L58.0657 7.35012H67.8757C68.0537 7.36951 68.2338 7.35119 68.4043 7.29633C68.5748 7.24148 68.7318 7.15132 68.8651 7.03175C68.9984 6.91217 69.105 6.76585 69.178 6.60231C69.251 6.43878 69.2887 6.2617 69.2887 6.08262C69.2887 5.90353 69.251 5.72646 69.178 5.56292C69.105 5.39939 68.9984 5.25307 68.8651 5.13349C68.7318 5.01391 68.5748 4.92376 68.4043 4.8689C68.2338 4.81405 68.0537 4.79572 67.8757 4.81512H16.5007C16.0241 4.81085 15.5576 4.9522 15.1636 5.22026C14.7695 5.48832 14.4667 5.8703 14.2957 6.31512L10.7707 15.3151C10.7707 15.3151 10.7707 15.3901 10.7707 15.4201C10.7707 15.4201 10.7707 15.4201 10.7707 15.5251C10.7634 15.5597 10.7634 15.5955 10.7707 15.6301V34.5001C10.7513 34.6781 10.7696 34.8583 10.8244 35.0287C10.8793 35.1992 10.9694 35.3562 11.089 35.4895C11.2086 35.6229 11.3549 35.7295 11.5185 35.8025C11.682 35.8755 11.8591 35.9132 12.0382 35.9132C12.2172 35.9132 12.3943 35.8755 12.5579 35.8025C12.7214 35.7295 12.8677 35.6229 12.9873 35.4895C13.1069 35.3562 13.197 35.1992 13.2519 35.0287C13.3067 34.8583 13.3251 34.6781 13.3057 34.5001V17.0851H40.1707V36.3751C40.1721 36.7424 40.2789 37.1015 40.4783 37.4099C40.6777 37.7183 40.9614 37.9631 41.2957 38.1151C41.6329 38.2745 42.01 38.3296 42.3787 38.2735C42.7475 38.2174 43.0911 38.0526 43.3657 37.8001L50.0857 31.8001L56.8057 37.8001C57.0789 38.0495 57.4198 38.2125 57.7855 38.2685C58.1512 38.3246 58.5253 38.2712 58.8607 38.1151C59.1989 37.9668 59.4867 37.7234 59.6891 37.4145C59.8915 37.1055 59.9998 36.7444 60.0007 36.3751V17.0851H86.8957V73.9951C86.8917 74.4341 86.7145 74.8538 86.4027 75.1628C86.0909 75.4718 85.6697 75.6451 85.2307 75.6451H61.9807C61.9881 75.5302 61.9881 75.415 61.9807 75.3001C62.8091 75.5483 63.6914 75.5526 64.5222 75.3124C65.3529 75.0722 66.0969 74.5977 66.665 73.9457C67.2331 73.2937 67.6014 72.4919 67.7256 71.6361C67.8499 70.7802 67.7249 69.9068 67.3657 69.1201L67.2157 68.8051C67.1696 68.7052 67.1144 68.6098 67.0507 68.5201L66.8557 68.2501C66.794 68.1586 66.7237 68.0732 66.6457 67.9951L66.3007 67.5001L66.0007 67.3051L65.7457 67.1101L65.4607 66.9301C66.004 66.4569 66.4259 65.8602 66.6907 65.1901C66.9237 64.637 67.0438 64.0428 67.0438 63.4426C67.0438 62.8424 66.9237 62.2482 66.6907 61.6951C66.2573 60.69 65.4812 59.8714 64.5007 59.3851L64.0807 59.2051L44.3707 51.1501L53.5657 48.3001C54.615 47.9717 55.4922 47.2421 56.0063 46.2701C56.5204 45.2981 56.6298 44.1624 56.3107 43.1101C56.0658 42.3115 55.5782 41.6089 54.9157 41.1001C54.426 40.7152 53.8582 40.442 53.2519 40.2995C52.6456 40.157 52.0155 40.1487 51.4057 40.2751C51.4057 40.2751 44.2957 41.8801 36.9307 43.2751L36.0007 43.5001L35.2657 43.6351H35.0557L33.8107 43.8751H33.3157C24.0757 45.5851 21.4807 45.6151 20.7607 45.5251H20.6857H20.5807L20.3707 45.4351L20.6257 44.8051C20.8799 44.1852 20.8799 43.4901 20.6257 42.8701C20.5547 42.7203 20.4745 42.5751 20.3857 42.4351C20.1044 42.0242 19.7077 41.7058 19.2457 41.5201L12.3907 38.8051C11.771 38.5493 11.0753 38.5493 10.4557 38.8051C10.1469 38.9313 9.8668 39.1186 9.63223 39.3557C9.39766 39.5929 9.21345 39.875 9.09066 40.1851L0.765656 60.6301C0.512625 61.2509 0.515764 61.9466 0.774385 62.565C1.03301 63.1835 1.52605 63.6743 2.14566 63.9301L9.00066 66.7051C9.30714 66.8227 9.63241 66.8836 9.96066 66.8851C10.4633 66.8859 10.9547 66.7363 11.3717 66.4557C11.7886 66.175 12.1122 65.7761 12.3007 65.3101V65.1601L13.8007 65.8051C15.3422 66.4033 16.7645 67.2719 18.0007 68.3701L18.6457 68.9851C18.8407 69.1951 19.0507 69.4201 19.2307 69.6451C19.3337 69.7533 19.4289 69.8685 19.5157 69.9901C21.2537 72.1943 23.5253 73.9187 26.1157 75.0001L27.8707 75.7201H15.0007C14.5643 75.7162 14.1468 75.5411 13.8383 75.2325C13.5297 74.9239 13.3546 74.5065 13.3507 74.0701V70.7851C13.3701 70.6071 13.3517 70.427 13.2969 70.2565C13.242 70.086 13.1519 69.929 13.0323 69.7957C12.9127 69.6624 12.7664 69.5557 12.6029 69.4827C12.4393 69.4098 12.2622 69.372 12.0832 69.372C11.9041 69.372 11.727 69.4098 11.5635 69.4827C11.3999 69.5557 11.2536 69.6624 11.134 69.7957C11.0144 69.929 10.9243 70.086 10.8694 70.2565C10.8146 70.427 10.7963 70.6071 10.8157 70.7851V73.9951C10.8157 75.105 11.2566 76.1695 12.0414 76.9544C12.8263 77.7392 13.8907 78.1801 15.0007 78.1801H34.0957L50.4457 84.8401C50.9861 85.0706 51.5681 85.188 52.1557 85.1851C53.0661 85.1846 53.9558 84.9134 54.7117 84.4059C55.4676 83.8984 56.0555 83.1776 56.4007 82.3351C56.6837 81.6368 56.7868 80.8786 56.7007 80.1301C57.5599 80.2543 58.4368 80.1402 59.2357 79.8001C60.0291 79.4542 60.7098 78.893 61.2007 78.1801H85.2007C86.312 78.1801 87.378 77.7397 88.1652 76.9553C88.9524 76.1709 89.3967 75.1064 89.4007 73.9951V15.8101H89.4307ZM44.7007 7.35012H55.5007L57.1657 14.5501H43.0657L44.7007 7.35012ZM40.5007 14.5501H13.8607L16.6807 7.35012H42.0907L40.5007 14.5501ZM57.4657 34.9951L51.3757 29.5951C51.0228 29.286 50.5697 29.1157 50.1007 29.1157C49.6316 29.1157 49.1785 29.286 48.8257 29.5951L42.7207 34.9951V17.0851H57.4807L57.4657 34.9951ZM9.91566 64.3501L3.12066 61.5751L11.4457 41.1601L18.2257 43.9351L9.91566 64.3501ZM60.6007 72.0001L59.1007 71.4151L43.9657 65.2201C43.6529 65.1005 43.3059 65.1072 42.998 65.2388C42.6901 65.3703 42.4454 65.6164 42.3157 65.9251C42.2524 66.0796 42.2205 66.2451 42.2218 66.4121C42.223 66.579 42.2575 66.744 42.3231 66.8976C42.3886 67.0511 42.4841 67.19 42.6039 67.3064C42.7236 67.4227 42.8653 67.514 43.0207 67.5751L58.1857 73.7551L58.3657 73.8451H58.4857L58.5907 73.9201C58.5907 73.9201 58.5907 73.9201 58.5907 73.9951L58.6657 74.0851C58.6614 74.115 58.6614 74.1453 58.6657 74.1751V74.2501V74.3401V74.4301V74.5201V74.6101C58.6657 74.6101 58.6657 74.6101 58.6657 74.7151C58.6722 74.7448 58.6722 74.7755 58.6657 74.8051C58.6655 74.8951 58.6655 74.8951 58.6655 74.9851C58.6718 75.0198 58.6718 75.0554 58.6657 75.0901V75.4801C58.6586 75.5097 58.6586 75.5405 58.6657 75.5701C58.6637 75.6051 58.6637 75.6401 58.6657 75.6751C58.6727 75.7047 58.6727 75.7355 58.6657 75.7651C58.6657 75.7651 58.6657 75.7651 58.6657 75.8551C58.6676 75.8901 58.6676 75.9251 58.6657 75.9601V76.0351C58.4676 76.4976 58.096 76.8638 57.6307 77.0551C57.102 77.2718 56.5093 77.2718 55.9807 77.0551L53.2957 75.9601L40.9507 70.9201C40.7694 70.8906 40.5842 70.897 40.4054 70.9391C40.2267 70.9811 40.058 71.058 39.9089 71.1652C39.7599 71.2725 39.6335 71.408 39.5368 71.5641C39.4402 71.7203 39.3752 71.8939 39.3457 72.0751C39.3161 72.2563 39.3225 72.4416 39.3646 72.6203C39.4067 72.7991 39.4835 72.9678 39.5908 73.1168C39.698 73.2659 39.8336 73.3923 39.9897 73.489C40.1458 73.5856 40.3194 73.6506 40.5007 73.6801L52.8307 78.7051C53.3299 78.904 53.7297 79.2931 53.9421 79.7868C54.1545 80.2805 54.1621 80.8383 53.9632 81.3376C53.7642 81.8369 53.3751 82.2367 52.8815 82.4491C52.3878 82.6615 51.8299 82.669 51.3307 82.4701L34.8307 75.7351L27.0007 72.5701C25.6393 72.0105 24.374 71.2412 23.2507 70.2901C22.5764 69.7208 21.9585 69.0879 21.4057 68.4001C20.8659 67.7155 20.2687 67.0782 19.6207 66.4951C18.1919 65.2291 16.5587 64.2147 14.7907 63.4951L13.2157 62.8651L16.3507 55.1701L19.3507 47.9101L19.5757 48.0001C19.9839 48.1702 20.4235 48.252 20.8657 48.2401C22.721 48.2386 24.5728 48.078 26.4007 47.7601C28.3957 47.4751 30.8257 47.0701 33.6757 46.5451H33.8857L34.2907 46.4701H34.6057L34.9657 46.3951L35.3707 46.3201H35.6857L36.1657 46.2301H36.4207L37.1857 46.0801C44.5207 44.6551 51.6007 43.0801 51.9157 42.9901H52.0207C52.4095 42.9298 52.8072 43.0078 53.1444 43.2107C53.4815 43.4135 53.7368 43.7283 53.8657 44.1001C53.9249 44.3618 53.9249 44.6334 53.8657 44.8951C53.8094 45.1832 53.6767 45.4507 53.4814 45.6698C53.2861 45.8889 53.0354 46.0513 52.7557 46.1401L40.1707 50.0251C39.9229 50.1044 39.7054 50.2575 39.5472 50.464C39.389 50.6704 39.2978 50.9203 39.2857 51.1801C39.2701 51.4411 39.337 51.7003 39.477 51.9211C39.617 52.1418 39.823 52.3129 40.0657 52.4101L63.1507 61.5001C63.651 61.7037 64.0502 62.0975 64.2607 62.5951C64.3664 62.8401 64.4223 63.1036 64.4251 63.3704C64.4279 63.6372 64.3776 63.9018 64.277 64.1489C64.1765 64.3961 64.0278 64.6207 63.8396 64.8098C63.6513 64.9988 63.4273 65.1485 63.1807 65.2501C62.9342 65.3563 62.669 65.4123 62.4007 65.4151H62.1457H62.0107H61.9207H61.8157H61.7107H61.6207L46.5007 59.1151C46.1879 58.9955 45.8409 59.0022 45.533 59.1338C45.2251 59.2653 44.9804 59.5114 44.8507 59.8201C44.787 59.9737 44.7543 60.1383 44.7546 60.3046C44.7549 60.4708 44.788 60.6354 44.8521 60.7888C44.9163 60.9421 45.0101 61.0813 45.1283 61.1982C45.2465 61.3152 45.3866 61.4076 45.5407 61.4701L63.9307 68.9701C64.059 69.0118 64.1803 69.0725 64.2907 69.1501C64.622 69.3782 64.8821 69.6954 65.0407 70.0651C65.222 70.4927 65.2486 70.9701 65.1157 71.4151C65.0999 71.4833 65.0746 71.5489 65.0407 71.6101C65.0468 71.675 65.0468 71.7403 65.0407 71.8051C64.9593 71.9361 64.869 72.0614 64.7707 72.1801L64.5607 72.3901C64.3295 72.5802 64.0582 72.7154 63.7672 72.7856C63.4762 72.8557 63.1731 72.859 62.8807 72.7951C62.7516 72.7766 62.6256 72.7413 62.5057 72.6901L60.6007 72.0001Z" fill="#EA028C"/>
</svg>
