<svg width="90" height="90" viewBox="0 0 90 90" fill="none" xmlns="http://www.w3.org/2000/svg">
<path d="M10.3047 22.1246V65.3696C10.3159 65.6944 10.421 66.009 10.6074 66.2752C10.7938 66.5415 11.0533 66.748 11.3547 66.8696L48.9597 82.0196C49.3649 82.177 49.8144 82.177 50.2197 82.0196L86.9997 66.9146C87.3005 66.7939 87.559 66.5873 87.7431 66.3205C87.9271 66.0537 88.0286 65.7387 88.0347 65.4146L88.4997 21.0896C88.4936 20.7656 88.3921 20.4505 88.2081 20.1838C88.024 19.917 87.7655 19.7104 87.4647 19.5896L50.9997 4.61964C50.798 4.53424 50.5812 4.49023 50.3622 4.49023C50.1432 4.49023 49.9264 4.53424 49.7247 4.61964L11.3247 20.5946C11.0232 20.7213 10.7657 20.934 10.5843 21.2061C10.4029 21.4781 10.3057 21.7976 10.3047 22.1246Z" stroke="#EA028C" stroke-width="1.7" stroke-miterlimit="10"/>
<path d="M11.8945 22.0202L49.6495 35.1152L88.4995 19.9502" stroke="#EA028C" stroke-width="1.7" stroke-miterlimit="10"/>
<path d="M28.0508 27.4049L66.7658 11.5049" stroke="#EA028C" stroke-width="1.7" stroke-miterlimit="10"/>
<path d="M1.99219 38.46H28.7522" stroke="#EA028C" stroke-width="1.7" stroke-miterlimit="10" stroke-linecap="round"/>
<path d="M6.51172 46.4551H35.1017" stroke="#EA028C" stroke-width="1.7" stroke-miterlimit="10" stroke-linecap="round"/>
<path d="M2.46094 55.8604H32.7609" stroke="#EA028C" stroke-width="1.7" stroke-miterlimit="10" stroke-linecap="round"/>
<path d="M49.6523 35.1152V82.3202" stroke="#EA028C" stroke-width="1.7" stroke-miterlimit="10"/>
</svg>
