<svg width="1440" height="503" viewBox="0 0 1440 503" fill="none" xmlns="http://www.w3.org/2000/svg">
<path fill-rule="evenodd" clip-rule="evenodd" d="M-870 211.987L-773.75 229.643C-677.5 246.121 -485 280.254 -292.5 229.643C-100 179.031 92.5 42.4963 285 9.53972C477.5 -24.5939 670 42.4963 862.5 60.1516C1055 76.6299 1247.5 42.4963 1343.75 26.018L1440 9.53972V365H1343.75C1247.5 365 1055 365 862.5 365C670 365 477.5 365 285 365C92.5 365 -100 365 -292.5 365C-485 365 -677.5 365 -773.75 365H-870V211.987Z" fill="url(#paint0_linear_285_210)"/>
<path fill-rule="evenodd" clip-rule="evenodd" d="M-869 412.397L-772 404.851C-675 397.809 -481 383.22 -287 404.851C-93 426.483 101 484.837 295 498.923C489 513.511 683 484.837 877 477.291C1071 470.249 1265 484.837 1362 491.88L1459 498.923V347H1362C1265 347 1071 347 877 347C683 347 489 347 295 347C101 347 -93 347 -287 347C-481 347 -675 347 -772 347H-869V412.397Z" fill="#129FD6"/>
<defs>
<linearGradient id="paint0_linear_285_210" x1="285" y1="0" x2="285" y2="365" gradientUnits="userSpaceOnUse">
<stop stop-color="#0AB0F0"/>
<stop offset="0.778414" stop-color="#129FD6"/>
</linearGradient>
</defs>
</svg>
