<svg width="1440" height="512" viewBox="0 0 1440 512" fill="none" xmlns="http://www.w3.org/2000/svg">
<path fill-rule="evenodd" clip-rule="evenodd" d="M-866 268.904L-769.75 291.3C-673.5 312.203 -481 355.501 -288.5 291.3C-96 227.099 96.5 53.9063 289 12.1011C481.5 -31.1972 674 53.9063 866.5 76.3019C1059 97.2045 1251.5 53.9063 1347.75 33.0037L1444 12.1011V463H1347.75C1251.5 463 1059 463 866.5 463C674 463 481.5 463 289 463C96.5 463 -96 463 -288.5 463C-481 463 -673.5 463 -769.75 463H-866V268.904Z" fill="url(#paint0_linear_31_210)"/>
<path fill-rule="evenodd" clip-rule="evenodd" d="M-873 421.397L-774.625 413.851C-676.25 406.809 -479.5 392.22 -282.75 413.851C-86 435.483 110.75 493.837 307.5 507.923C504.25 522.511 701 493.837 897.75 486.291C1094.5 479.249 1291.25 493.837 1389.62 500.88L1488 507.923V356H1389.62C1291.25 356 1094.5 356 897.75 356C701 356 504.25 356 307.5 356C110.75 356 -86 356 -282.75 356C-479.5 356 -676.25 356 -774.625 356H-873V421.397Z" fill="#129FD6"/>
<defs>
<linearGradient id="paint0_linear_31_210" x1="289" y1="0" x2="289" y2="463" gradientUnits="userSpaceOnUse">
<stop stop-color="#0AB0F0"/>
<stop offset="0.778414" stop-color="#129FD6"/>
</linearGradient>
</defs>
</svg>
