<svg width="1440" height="583" viewBox="0 0 1440 583" fill="none" xmlns="http://www.w3.org/2000/svg">
<g clip-path="url(#clip0_2_2125)">
<path d="M1235.34 181.12C1233.01 170.77 1222.79 163 1210.5 163C1200.75 163 1192.27 167.92 1188.06 175.12C1183.1 175.596 1178.51 177.686 1175.18 180.986C1171.84 184.286 1170 188.565 1170 193C1170 202.93 1179.08 211 1190.25 211H1234.12C1243.44 211 1251 204.28 1251 196C1251 188.08 1244.08 181.66 1235.34 181.12Z" fill="white" fill-opacity="0.58"/>
</g>
<g clip-path="url(#clip1_2_2125)">
<path d="M1057.97 160.189C1055.68 150.196 1045.81 142.736 1034 142.796C1024.62 142.843 1016.5 147.64 1012.48 154.62C1007.71 155.104 1003.31 157.146 1000.12 160.352C996.934 163.558 995.183 167.703 995.205 171.99C995.254 181.587 1004.02 189.343 1014.76 189.289L1056.95 189.075C1065.9 189.03 1073.14 182.498 1073.1 174.495C1073.06 166.84 1066.37 160.668 1057.97 160.189Z" fill="white" fill-opacity="0.58"/>
</g>
<g clip-path="url(#clip2_2_2125)">
<path d="M545.967 108.189C543.678 98.1964 533.808 90.7361 521.997 90.796C512.619 90.8435 504.499 95.6401 500.478 102.62C495.711 103.104 491.311 105.146 488.123 108.352C484.934 111.558 483.183 115.703 483.205 119.99C483.254 129.587 492.022 137.343 502.763 137.289L544.945 137.075C553.901 137.03 561.137 130.498 561.096 122.495C561.057 114.84 554.374 108.668 545.967 108.189Z" fill="white" fill-opacity="0.58"/>
</g>
<g clip-path="url(#clip3_2_2125)">
<path d="M970.253 47.69C966.573 31.3025 950.413 19 931 19C915.587 19 902.2 26.79 895.533 38.19C887.695 38.9445 880.445 42.2522 875.179 47.4778C869.912 52.7033 866.999 59.478 867 66.5C867 82.2225 881.347 95 899 95H968.333C983.053 95 995 84.36 995 71.25C995 58.71 984.067 48.545 970.253 47.69Z" fill="white" fill-opacity="0.58"/>
</g>
<path d="M1143 83.1834C1143.96 83.1834 1144.88 82.8029 1145.56 82.1257C1146.23 81.4485 1146.61 80.53 1146.61 79.5722V66.8972C1146.61 65.9395 1146.23 65.021 1145.56 64.3438C1144.88 63.6666 1143.96 63.2861 1143 63.2861C1142.04 63.2861 1141.13 63.6666 1140.45 64.3438C1139.77 65.021 1139.39 65.9395 1139.39 66.8972V79.5722C1139.39 80.53 1139.77 81.4485 1140.45 82.1257C1141.13 82.8029 1142.04 83.1834 1143 83.1834Z" fill="#F6FF94"/>
<path d="M1143 166.816C1142.04 166.816 1141.13 167.197 1140.45 167.874C1139.77 168.551 1139.39 169.47 1139.39 170.428V183.103C1139.39 184.06 1139.77 184.979 1140.45 185.656C1141.13 186.333 1142.04 186.714 1143 186.714C1143.96 186.714 1144.88 186.333 1145.56 185.656C1146.23 184.979 1146.61 184.06 1146.61 183.103V170.428C1146.61 169.47 1146.23 168.551 1145.56 167.874C1144.88 167.197 1143.96 166.816 1143 166.816Z" fill="#F6FF94"/>
<path d="M1108.34 95.4253C1109.03 96.0169 1109.92 96.326 1110.82 96.2909C1111.73 96.2558 1112.59 95.8791 1113.24 95.2359C1113.88 94.5928 1114.26 93.7307 1114.29 92.8219C1114.33 91.9131 1114.02 91.0244 1113.43 90.3336L1104.47 81.3781C1103.78 80.7865 1102.89 80.4774 1101.98 80.5125C1101.07 80.5476 1100.21 80.9243 1099.57 81.5674C1098.93 82.2106 1098.55 83.0727 1098.51 83.9815C1098.48 84.8903 1098.79 85.7789 1099.38 86.4697L1108.34 95.4253Z" fill="#F6FF94"/>
<path d="M1177.67 154.575C1176.98 153.984 1176.09 153.675 1175.18 153.71C1174.27 153.745 1173.41 154.122 1172.76 154.765C1172.12 155.408 1171.74 156.27 1171.71 157.179C1171.67 158.088 1171.98 158.976 1172.58 159.667L1181.53 168.623C1182.22 169.214 1183.11 169.523 1184.02 169.488C1184.93 169.453 1185.79 169.076 1186.43 168.433C1187.08 167.79 1187.45 166.928 1187.49 166.019C1187.52 165.11 1187.21 164.222 1186.62 163.531L1177.67 154.575Z" fill="#F6FF94"/>
<path d="M1101.18 125C1101.18 124.042 1100.8 123.124 1100.12 122.446C1099.45 121.769 1098.53 121.389 1097.57 121.389H1084.9C1083.94 121.389 1083.02 121.769 1082.34 122.446C1081.67 123.124 1081.29 124.042 1081.29 125C1081.29 125.958 1081.67 126.876 1082.34 127.553C1083.02 128.23 1083.94 128.611 1084.9 128.611H1097.57C1098.53 128.611 1099.45 128.23 1100.12 127.553C1100.8 126.876 1101.18 125.958 1101.18 125Z" fill="#F6FF94"/>
<path d="M1201.1 121.389H1188.42C1187.47 121.389 1186.55 121.769 1185.87 122.446C1185.19 123.124 1184.81 124.042 1184.81 125C1184.81 125.958 1185.19 126.876 1185.87 127.553C1186.55 128.23 1187.47 128.611 1188.42 128.611H1201.1C1202.06 128.611 1202.97 128.23 1203.65 127.553C1204.33 126.876 1204.71 125.958 1204.71 125C1204.71 124.042 1204.33 123.124 1203.65 122.446C1202.97 121.769 1202.06 121.389 1201.1 121.389Z" fill="#F6FF94"/>
<path d="M1108.34 154.575L1099.38 163.531C1098.79 164.222 1098.48 165.11 1098.51 166.019C1098.55 166.928 1098.93 167.79 1099.57 168.433C1100.21 169.076 1101.07 169.453 1101.98 169.488C1102.89 169.523 1103.78 169.214 1104.47 168.623L1113.43 159.667C1114.02 158.976 1114.33 158.088 1114.29 157.179C1114.26 156.27 1113.88 155.408 1113.24 154.765C1112.59 154.122 1111.73 153.745 1110.82 153.71C1109.92 153.675 1109.03 153.984 1108.34 154.575Z" fill="#F6FF94"/>
<path d="M1177.67 95.4253L1186.62 86.4697C1187.21 85.7789 1187.52 84.8903 1187.49 83.9815C1187.45 83.0727 1187.08 82.2106 1186.43 81.5674C1185.79 80.9243 1184.93 80.5476 1184.02 80.5125C1183.11 80.4774 1182.22 80.7865 1181.53 81.3781L1172.58 90.3336C1171.98 91.0244 1171.67 91.9131 1171.71 92.8219C1171.74 93.7307 1172.12 94.5928 1172.76 95.2359C1173.41 95.8791 1174.27 96.2558 1175.18 96.2909C1176.09 96.326 1176.98 96.0169 1177.67 95.4253Z" fill="#F6FF94"/>
<path d="M1143 161.111C1162.95 161.111 1179.11 144.943 1179.11 125C1179.11 105.056 1162.95 88.8887 1143 88.8887C1123.06 88.8887 1106.89 105.056 1106.89 125C1106.89 144.943 1123.06 161.111 1143 161.111Z" fill="#F6FF94"/>
<path d="M0 433.07C0 313.408 0.140167 283.127 0.694444 283.077C1.07639 283.042 2.33589 282.911 3.49328 282.786C5.04928 282.617 5.556 282.682 5.43772 283.036C5.34978 283.299 5.7834 283.696 6.4014 283.918C7.03657 284.146 7.44145 284.605 7.3329 284.974C7.12184 285.691 9.10583 285.924 9.72222 285.254C9.91106 285.049 9.80084 284.881 9.47723 284.881C9.15368 284.881 8.88889 284.713 8.88889 284.508C8.88889 284.303 9.78073 284.135 10.8708 284.135C12.5855 284.135 12.8061 284.233 12.5075 284.865C12.2285 285.456 12.5103 285.656 13.9801 285.912C15.2512 286.133 15.8941 286.502 16.1183 287.14C16.5564 288.386 18.0118 288.308 18.2313 287.026C18.328 286.462 18.7031 286 19.0647 286C19.5107 285.999 19.7222 286.869 19.7222 288.705C19.7222 291.162 19.8244 291.41 20.8333 291.41C21.5689 291.41 22.0055 291.121 22.1251 290.555C22.2602 289.915 22.5638 289.754 23.3284 289.917C23.8908 290.037 24.5059 289.966 24.6953 289.761C24.9222 289.514 25.5075 289.53 26.4111 289.806C27.1653 290.037 27.903 290.145 28.0503 290.046C28.5054 289.74 28.5459 287.358 28.1133 286.341C27.7312 285.443 27.8133 285.387 29.2997 285.533C30.2913 285.631 31.1618 285.476 31.5966 285.124C32.2164 284.623 32.4196 284.64 33.3705 285.279C34.7301 286.192 34.7475 286.73 33.4098 286.495C32.0834 286.262 31.3544 287.816 32.4462 288.549C33.0591 288.961 33.3977 288.964 34.3398 288.569C35.2244 288.198 35.7809 288.186 36.7713 288.517C39.2002 289.329 46.2998 289.662 49.4444 289.112C51.0217 288.836 51.4235 288.571 51.5724 287.706C51.6733 287.119 51.3107 286.084 50.7666 285.406C49.8706 284.288 49.8584 284.109 50.6376 283.5C51.1107 283.131 51.653 282.535 51.8426 282.176C52.2653 281.375 53.1037 281.329 53.5342 282.083C53.7101 282.39 54.1118 282.642 54.427 282.642C55.1624 282.642 55.1767 281.267 54.4444 280.963C53.4818 280.564 53.8407 280.03 55.0722 280.03C56.1461 280.03 56.2296 279.875 55.9738 278.352C55.6389 276.356 54.7825 275.553 52.9875 275.553C52.2611 275.553 51.6667 275.385 51.6667 275.18C51.6667 274.975 52.1485 274.807 52.7374 274.807C53.3264 274.807 54.2921 274.394 54.8835 273.889C55.8278 273.082 56.0838 273.032 56.9862 273.475C57.8869 273.918 57.9161 274.059 57.2222 274.62C56.5308 275.18 56.551 275.32 57.3821 275.728C58.4973 276.275 58.6288 278.067 57.6589 279.497C57.0562 280.385 57.1282 280.569 58.3362 281.226C59.4719 281.844 60.1794 281.922 62.7607 281.712C64.4507 281.575 66.4175 281.211 67.1315 280.903C69.0475 280.078 69.2372 280.577 67.5262 281.943L66.0253 283.141L68.8638 284.079C71.4889 284.946 71.7704 284.971 72.6089 284.408C73.3172 283.932 73.3727 283.683 72.8624 283.27C72.5031 282.98 72.2517 282.425 72.3037 282.039C72.5561 280.164 72.2023 279.284 71.1964 279.284C69.8172 279.284 66.6667 278.204 66.6667 277.732C66.6667 277.499 67.4953 277.447 68.8215 277.597C70.8553 277.828 71.0097 277.778 71.5704 276.697C72.2104 275.464 72.7722 275.325 74.5406 275.961C75.3339 276.246 75.8505 276.25 76.2591 275.976C77.0461 275.447 81.6149 275.885 83.171 276.638C83.9322 277.007 84.2868 277.48 84.1058 277.885C83.9453 278.244 84.0808 278.538 84.407 278.538C84.7332 278.538 85 278.305 85 278.021C85 277.392 88.1264 277.019 89.8181 277.446C91.4282 277.853 92.6231 276.987 91.3957 276.303C90.9336 276.045 90.5556 275.499 90.5556 275.088C90.5556 274.456 90.2968 274.375 88.8889 274.564C87.6333 274.733 87.2222 274.651 87.2222 274.232C87.2222 273.848 86.7233 273.701 85.6109 273.758C83.6153 273.86 82.1146 273.074 82.3343 272.041C82.4673 271.416 82.8287 271.286 84.1667 271.383C85.0833 271.45 86.2708 271.77 86.8055 272.094C88.0695 272.861 88.0695 272.368 86.8055 271.484C85.9001 270.851 84.8762 270.605 80.9654 270.077C78.9726 269.808 78.5354 269.288 79.6654 268.529C80.4123 268.027 80.7678 268 81.6681 268.378C83.4022 269.105 83.8894 268.932 83.5278 267.718C83.2783 266.88 83.4 266.598 84.0111 266.598C85.205 266.598 86.9723 268.058 86.7706 268.877C86.6397 269.409 86.9318 269.583 87.9558 269.583C88.8476 269.583 89.4147 269.84 89.6054 270.329C89.9955 271.331 91.6667 271.303 91.6667 270.294C91.6667 269.827 91.2203 269.435 90.5556 269.318C89.9444 269.211 89.4444 268.988 89.4444 268.824C89.4444 268.659 89.3003 268.273 89.1242 267.964C88.9069 267.584 89.2053 267.364 90.0526 267.281C90.8424 267.203 91.7754 266.584 92.5913 265.596C93.7713 264.168 93.8059 263.984 92.9966 263.44C92.2512 262.94 92.2289 262.752 92.8553 262.245C93.343 261.85 93.6704 260.237 93.8071 257.557L94.0153 253.471L95.6188 253.095C96.5007 252.889 97.2534 252.568 97.2917 252.383C97.3298 252.198 97.4223 251.585 97.4971 251.021C97.5718 250.456 97.9031 248.018 98.2331 245.601C98.5632 243.185 98.6888 240.389 98.5124 239.388C98.1946 237.586 98.7407 233.167 99.2399 233.502C99.3826 233.598 99.5967 236.509 99.7158 239.97C99.8349 243.431 99.9476 246.326 99.9662 246.402C99.9848 246.479 100.386 246.326 100.858 246.063C101.435 245.741 101.606 245.249 101.381 244.561C101.186 243.965 101.308 243.427 101.672 243.276C102.098 243.099 102.177 242.252 101.918 240.629C101.653 238.967 101.726 238.241 102.157 238.241C102.499 238.241 102.778 237.903 102.778 237.49C102.778 237.077 103.09 236.4 103.472 235.986C104.045 235.366 104.02 235.171 103.333 234.878C102.688 234.602 102.845 234.52 104.028 234.516C104.868 234.513 105.526 234.384 105.49 234.23C105.454 234.077 105.457 233.699 105.498 233.391C105.564 232.893 105.632 232.893 106.111 233.391C106.571 233.869 106.651 233.856 106.658 233.298C106.663 232.939 107.027 232.645 107.467 232.645C108.627 232.645 109.088 231.95 108.333 231.339C107.452 230.626 108.103 230.033 109.768 230.033C111.1 230.033 111.112 230.008 110.227 229.1C109.481 228.336 109.458 228.167 110.102 228.167C110.534 228.167 111.925 227.498 113.193 226.679C114.461 225.861 115.651 225.357 115.838 225.56C116.405 226.177 117.659 225.971 117.577 225.276C117.523 224.814 117.907 224.623 118.889 224.623C120.029 224.623 120.304 224.824 120.427 225.742C120.66 227.502 121.762 230.033 122.294 230.033C122.56 230.033 122.778 229.802 122.778 229.519C122.778 229.236 123.173 228.785 123.656 228.516C124.167 228.231 124.432 227.667 124.289 227.166C123.995 226.132 125.36 225.152 125.864 226.035C126.041 226.345 126.13 226.825 126.061 227.103C125.902 227.746 126.684 229.018 127.459 229.374C127.86 229.558 127.828 229.65 127.361 229.654C126.979 229.657 126.667 229.996 126.667 230.406C126.667 230.816 126.856 231.152 127.087 231.152C127.318 231.152 127.855 231.698 128.281 232.365C129.394 234.109 130.09 234.643 130.572 234.119C130.812 233.859 131.098 234.051 131.308 234.614C131.787 235.894 133.645 236.283 141.389 236.723C150.456 237.239 157.815 237.84 158.491 238.12C158.86 238.273 158.917 241.922 158.661 248.837C158.328 257.795 158.391 259.431 159.093 260.069C159.819 260.728 159.818 260.887 159.083 261.435C157.911 262.307 158.318 264.13 159.722 264.305C160.333 264.381 161.042 264.687 161.297 264.985C161.553 265.283 162.303 265.667 162.964 265.838C164.071 266.126 164.087 266.172 163.159 266.423C162.453 266.615 161.903 266.458 161.322 265.901C160.237 264.861 158.906 264.884 158.823 265.945C158.381 271.582 158.447 273.724 159.056 273.59C159.422 273.509 159.802 273.078 159.9 272.632C160.013 272.116 160.473 271.822 161.167 271.822C162.279 271.822 162.434 271.659 163.02 269.863C163.291 269.031 163.66 268.837 164.964 268.837C165.85 268.837 166.666 268.652 166.778 268.425C166.891 268.199 167.302 268.85 167.692 269.872L168.401 271.731L171.238 271.914C174.313 272.113 175.556 272.812 175.556 274.344C175.556 275.067 175.765 275.186 176.693 274.988C177.932 274.724 179.444 275.353 179.444 276.133C179.444 276.402 178.944 276.729 178.333 276.859C176.715 277.204 176.974 277.79 178.75 277.8L180.278 277.808L178.889 278.543C177.712 279.166 177.627 279.335 178.333 279.649C178.792 279.852 180.064 280.022 181.161 280.025C182.753 280.029 183.282 279.842 183.788 279.098C184.263 278.397 184.872 278.154 186.238 278.122C189.531 278.045 191.004 277.848 192.707 277.257C195.294 276.358 195.998 276.518 196.735 278.171C197.27 279.371 197.607 279.625 198.428 279.45C198.992 279.33 200.856 279.664 202.571 280.191C204.286 280.718 206.008 281.15 206.397 281.15C207.344 281.15 207.725 281.914 207.38 283.126C206.932 284.7 207.526 285.371 208.922 284.869C209.916 284.512 210.029 284.236 209.707 282.956C209.39 281.695 209.513 281.374 210.489 280.915C211.127 280.615 211.855 279.832 212.109 279.174C212.688 277.674 213.867 277.642 214.979 279.098C215.449 279.713 215.885 280.28 215.949 280.357C216.111 280.553 218.882 280.532 219.178 280.333C219.509 280.111 221.612 236.237 222.501 211.004C222.678 205.976 222.96 201.233 223.127 200.464C223.456 198.949 224.439 198.534 224.453 199.904C224.458 200.366 224.696 200.992 224.983 201.297C225.397 201.736 225.672 201.583 226.323 200.551C226.773 199.836 227.66 199.04 228.293 198.781C228.926 198.523 229.444 197.977 229.444 197.569C229.444 196.877 229.82 196.826 234.861 196.83C242.7 196.836 244.444 197.083 244.444 198.19C244.444 198.805 244.888 199.196 245.87 199.447C247.848 199.952 252.072 199.903 252.564 199.368C252.946 198.952 253.228 193.521 254.209 167.629C254.433 161.729 254.796 156.902 255.016 156.902C255.58 156.902 256.315 159.111 256.196 160.447L256.096 161.566L256.949 160.547C257.711 159.637 258.101 159.532 260.593 159.57C262.8 159.604 263.67 159.432 264.753 158.748C265.758 158.114 265.938 157.807 265.431 157.597C265.027 157.429 264.55 157.535 264.286 157.852C264.037 158.151 263.271 158.395 262.583 158.395C261.896 158.395 261.075 158.568 260.76 158.78C260.444 158.992 259.782 159.061 259.287 158.934C258.482 158.726 258.418 157.697 258.671 148.941C259.008 137.305 259.001 137.053 258.315 136.592C257.423 135.993 257.695 135.739 259.483 135.499C260.81 135.321 261.395 134.939 262.122 133.777C262.817 132.666 263.375 132.283 264.306 132.28C264.993 132.278 265.559 132.487 265.564 132.743C265.57 133.057 265.706 133.078 265.981 132.809C266.755 132.049 268.44 131.903 270.19 132.442C271.155 132.74 272.794 133.125 273.833 133.297C276.165 133.684 277.346 135.212 275.557 135.526C274.136 135.776 274.108 136.381 275.516 136.381C277.483 136.381 278.493 137.47 278.086 139.153C277.884 139.988 277.733 140.924 277.752 141.231C277.77 141.539 277.773 142.43 277.757 143.211C277.737 144.238 278.081 144.838 279.003 145.384C279.704 145.799 280.016 146.053 279.696 145.948C278.367 145.514 277.81 146.445 277.488 149.639C276.796 156.52 277.114 158.564 278.926 158.882C279.996 159.07 280.171 158.754 280.742 155.596C280.854 154.981 280.982 157.111 281.028 160.329C281.08 164.005 280.874 166.572 280.473 167.232C279.558 168.74 278.57 197.797 279.412 198.478C279.752 198.753 282.819 199.267 286.231 199.62C289.642 199.973 292.791 200.354 293.229 200.467C293.913 200.643 293.997 203.947 293.819 223.688C293.644 243.095 293.734 246.805 294.395 247.341C294.825 247.69 295.548 247.881 296 247.765C296.456 247.647 297.143 247.86 297.542 248.243C297.938 248.622 301.251 249.818 304.906 250.899C310.809 252.647 311.585 252.984 311.865 253.924C312.124 254.794 312.504 255.003 314.007 255.1L315.833 255.218L315.891 273.687C315.923 283.845 315.985 292.356 316.03 292.6C316.075 292.845 317.049 293.096 318.194 293.16C320.099 293.266 320.305 293.388 320.599 294.582C321.149 296.815 321.604 295.061 321.893 289.595C322.044 286.749 322.242 284.374 322.333 284.317C322.425 284.26 324.625 284.095 327.222 283.952C329.819 283.808 333.319 283.58 335 283.446L338.056 283.202L338.333 278.314C338.52 275.035 338.854 273.23 339.351 272.829C339.811 272.457 341.175 272.19 342.962 272.12C345.755 272.011 345.838 271.975 346.007 270.797C346.144 269.846 346.84 269.225 349.253 267.905C350.942 266.981 352.489 266.216 352.69 266.205C352.891 266.194 354.181 266.106 355.556 266.01C358.801 265.784 359.318 265.789 361.813 266.072C365.045 266.437 365.556 265.92 365.556 262.283C365.556 259.498 365.683 259.118 366.79 258.597C367.469 258.278 368.991 258.017 370.172 258.017C372.025 258.017 372.401 257.87 372.919 256.948C373.762 255.449 375.373 254.899 378.658 254.988C380.663 255.043 381.701 254.894 382.215 254.478C382.812 253.994 383.685 253.935 387.165 254.141C389.488 254.278 392.014 254.555 392.778 254.754C393.542 254.954 395.191 255.182 396.442 255.26L398.718 255.402L399.079 250.646C399.277 248.031 399.441 242.837 399.442 239.105C399.443 235.373 399.681 231.901 399.971 231.39C400.325 230.764 401 230.42 402.032 230.339C404.074 230.18 404.321 229.453 404.389 223.404L404.444 218.454L406.25 217.928C407.243 217.638 408.505 217.307 409.054 217.193C409.867 217.023 409.985 216.739 409.687 215.673C409.447 214.813 409.533 214.362 409.938 214.362C410.278 214.362 410.556 214.789 410.556 215.31C410.556 217.08 412.672 219.018 419.675 223.658C423.521 226.205 426.668 228.472 426.669 228.695C426.671 229.09 430.786 230.406 432.021 230.406C432.362 230.406 432.958 230.15 433.345 229.837C433.973 229.329 434.16 229.336 435.087 229.899C435.697 230.27 437.899 230.697 440.424 230.935L444.722 231.339L444.503 250.274L444.284 269.21L445.892 269.25C446.776 269.271 448.207 269.257 449.072 269.218C449.936 269.179 451.138 269.448 451.742 269.816C452.549 270.306 454.124 270.538 457.671 270.688C463.109 270.918 463.889 271.128 463.889 272.358C463.889 273.877 464.848 274.027 474.635 274.029C482.027 274.032 484 273.926 484.234 273.518C484.395 273.236 484.726 271.857 484.968 270.454L485.409 267.904L485.491 270.143C485.561 272.057 486.475 274.248 486.737 273.128C486.876 272.533 487.025 271.359 487.127 270.05C487.28 268.105 488.333 268.654 488.333 270.678C488.333 273.497 489.029 274.392 491.189 274.35C492.453 274.326 493.225 274.556 493.784 275.121C494.421 275.765 495.129 275.926 497.326 275.926C502.144 275.926 502.222 276.012 502.222 281.349C502.222 285.65 502.301 286 503.265 286C503.839 286 504.626 285.743 505.015 285.428C505.645 284.918 505.85 284.934 506.889 285.572C507.531 285.965 508.605 286.399 509.277 286.536C509.949 286.673 510.642 287.088 510.818 287.459C511.062 287.976 511.942 288.191 514.565 288.375C516.451 288.507 518.196 288.48 518.442 288.315C518.689 288.149 519.16 279.711 519.489 269.564C519.984 254.309 520.228 251.017 520.897 250.554C521.577 250.084 524.408 249.984 538.634 249.928C547.944 249.891 556.896 249.749 558.526 249.612C560.937 249.41 562.054 249.524 564.496 250.219C566.148 250.69 567.69 251.251 567.922 251.467C568.155 251.683 568.178 259.794 567.974 269.49C567.72 281.518 567.784 287.12 568.175 287.12C568.554 287.12 568.887 281.763 569.156 271.355C569.406 261.655 569.78 255.412 570.127 255.125C570.438 254.868 571.652 254.659 572.826 254.659C575.288 254.659 576.111 253.97 576.111 251.911C576.111 249.827 577.147 249.436 582.679 249.43C588.399 249.424 589.855 249.209 590.28 248.31C590.69 247.443 595.353 247.033 603.333 247.164C613.659 247.333 614.148 247.371 614.336 248.027C614.665 249.173 616.941 249.738 622.267 249.993C625.145 250.131 627.977 250.333 628.559 250.442C629.585 250.635 629.608 251.086 629.287 264.581C629.104 272.248 629.146 278.6 629.379 278.697C629.754 278.853 630.62 271.841 631.381 262.494C632.231 252.058 633.292 247.557 635.147 246.523C635.553 246.297 639.572 246.097 644.729 246.047C649.614 245.999 653.924 245.885 654.306 245.792C654.765 245.681 655 244.796 655 243.176C655 240.257 655.653 240.302 655.759 243.229C655.8 244.351 656.039 245.409 656.29 245.58C656.541 245.751 660.665 246.142 665.454 246.45L674.162 247.01L674.938 248.502C675.365 249.323 675.866 251.84 676.051 254.095L676.389 258.195L679.444 258.476C681.125 258.63 683.082 258.848 683.793 258.961L685.086 259.165L684.945 282.259C684.797 306.464 684.804 306.535 687.151 306.513C687.649 306.509 688.681 306.183 689.444 305.788L690.833 305.072L691.222 288.765C691.435 279.797 691.74 272.231 691.899 271.954C692.087 271.624 693.134 271.449 694.915 271.449C696.558 271.449 697.895 271.244 698.279 270.933C698.691 270.599 698.979 268.026 699.094 263.653C699.191 259.933 699.442 256.774 699.652 256.633C699.862 256.492 700.008 259.596 699.976 263.531C699.944 267.465 700.076 270.856 700.269 271.066C700.463 271.277 701.842 271.449 703.333 271.449C704.825 271.449 706.216 271.634 706.424 271.86C706.632 272.086 706.77 273.723 706.732 275.498C706.646 279.386 707.04 279.999 709.054 279.113C710.256 278.584 710.949 278.549 713.633 278.882C715.372 279.098 717.079 279.152 717.425 279.002C718.446 278.56 720.767 278.617 721.667 279.106C722.125 279.355 723.931 279.652 725.68 279.767C727.429 279.881 729.117 280.081 729.43 280.211C729.794 280.362 730 283.737 730 289.567V298.686H732.432C733.77 298.686 735.106 298.476 735.403 298.22C736.378 297.376 738.333 289.124 738.333 285.851C738.333 282.675 738.347 282.642 739.726 282.642C741.117 282.642 741.118 282.646 740.766 285.347C740.572 286.835 740.196 288.212 739.929 288.407C738.93 289.138 739.432 290.879 740.884 291.718C742.382 292.583 742.663 293.576 741.969 295.547C741.458 296.999 742.702 297.94 745.135 297.94C746.082 297.94 747.332 298.229 747.913 298.582C748.715 299.069 750.063 299.234 753.521 299.268C756.025 299.293 758.652 299.521 759.358 299.774C760.064 300.028 761.005 300.143 761.448 300.029C761.89 299.914 762.676 300.153 763.194 300.559C764.023 301.209 764.838 301.297 769.985 301.293C777.478 301.286 778.228 301.145 778.609 299.671C778.775 299.027 779.094 294.474 779.317 289.553L779.722 280.607L781.389 280.263C782.305 280.074 783.843 279.692 784.806 279.415C785.769 279.138 787.191 278.911 787.967 278.911C789.214 278.911 789.42 278.715 789.756 277.211C790.021 276.024 790.524 275.339 791.424 274.944C792.132 274.632 792.789 273.934 792.884 273.394C793.077 272.29 794.357 271.919 798.194 271.859L800.556 271.822L800.675 262.401C800.741 257.219 800.804 251.856 800.814 250.482C800.825 249.108 801.083 247.831 801.389 247.643C801.881 247.341 805.504 246.844 812.5 246.12C814.592 245.904 814.738 245.805 815 244.427C815.153 243.622 815.559 242.902 815.904 242.826C816.813 242.625 817.311 243.776 816.665 244.587C816.36 244.969 816.111 245.357 816.111 245.449C816.111 245.927 819.926 246.143 833.229 246.418C841.482 246.589 848.087 246.882 848.397 247.09C848.745 247.324 848.987 255.662 849.057 269.801L849.167 292.144L853.385 292.119C855.705 292.106 857.979 291.998 858.438 291.88C859.086 291.713 859.358 290.643 859.658 287.076C859.87 284.553 860.18 282.397 860.346 282.285C860.511 282.174 862.893 281.99 865.639 281.877C869.122 281.734 870.78 281.509 871.125 281.134C871.548 280.675 871.868 280.696 873.327 281.274C874.596 281.778 876.774 282.016 881.822 282.204L888.611 282.456L888.948 287.306C889.134 289.974 889.321 292.212 889.365 292.279C889.409 292.346 890.257 292.364 891.25 292.318C895.028 292.144 899.444 292.358 899.444 292.716C899.444 292.922 898.382 293.11 897.083 293.136L894.722 293.183L897.222 293.482C898.597 293.646 900.756 293.793 902.019 293.808C903.814 293.83 904.51 294.034 905.203 294.744C905.782 295.337 906.72 295.694 907.906 295.77L909.722 295.888L909.873 303.257C909.965 307.746 910.236 310.626 910.567 310.626C910.866 310.626 911.111 310.128 911.111 309.52C911.111 308.197 912.366 307.643 915.38 307.636C918.611 307.628 919.874 307.284 920.237 306.311C920.42 305.823 921.066 305.245 921.673 305.027C922.811 304.618 923.21 303.537 922.222 303.537C921.917 303.537 921.667 303.201 921.667 302.79C921.667 302.38 922.037 302.044 922.489 302.044C923.367 302.044 923.478 301.802 924.452 297.753C925.333 294.097 926.678 289.272 926.994 288.643C927.806 287.022 929.043 291.065 931.909 304.709C932.224 306.211 932.471 306.466 933.769 306.633C934.592 306.739 935.69 306.673 936.207 306.487C936.725 306.301 938.041 306.148 939.13 306.148C940.848 306.148 941.111 306.267 941.111 307.04C941.111 307.762 941.478 307.977 943.04 308.174C944.102 308.308 945.185 308.675 945.448 308.991C945.847 309.47 946.086 309.401 946.889 308.578C947.646 307.802 947.711 307.477 947.191 307.056C946.676 306.64 946.699 306.385 947.293 305.901C947.887 305.418 947.902 305.246 947.361 305.124C946.979 305.038 946.667 304.653 946.667 304.27C946.667 303.887 946.257 303.42 945.755 303.231C945.254 303.043 945.021 302.696 945.238 302.46C945.455 302.225 945.836 302.116 946.084 302.22C946.333 302.323 947.161 302.077 947.925 301.673C948.689 301.27 949.968 300.773 950.768 300.568C951.686 300.334 952.222 299.914 952.222 299.43C952.222 299.008 952.535 298.586 952.917 298.493C955.003 297.982 965.803 297.272 972.394 297.213C973.558 297.202 974.375 297.047 974.209 296.867C973.861 296.488 975.444 293.18 976.105 292.905C976.35 292.804 977.221 292.954 978.039 293.239C979.793 293.85 983.723 293.623 985.078 292.833C985.685 292.479 987.08 292.328 989.253 292.38C992.336 292.455 993.873 292.14 996.111 290.977C996.569 290.739 998.378 290.571 1000.13 290.604C1003.05 290.659 1003.51 290.791 1005.69 292.194C1008.05 293.717 1008.08 293.725 1013.37 293.952C1016.29 294.077 1019.08 294.281 1019.56 294.405C1020.17 294.562 1020.55 295.363 1020.82 297.031C1021.21 299.515 1021.75 299.971 1022.78 298.686C1023.1 298.276 1023.26 297.94 1023.13 297.94C1022.99 297.94 1023.22 296.974 1023.64 295.795C1024.06 294.615 1024.44 291.886 1024.49 289.731C1024.54 287.577 1024.73 285.31 1024.93 284.694C1025.25 283.689 1025.52 283.563 1027.64 283.46C1029.86 283.352 1030 283.278 1030 282.213C1030 281.394 1030.31 281.026 1031.11 280.885C1031.81 280.762 1032.22 280.376 1032.22 279.846C1032.22 278.614 1033.51 278.089 1036.22 278.222L1038.61 278.339L1038.78 275.831C1038.91 273.728 1039.13 273.255 1040.11 272.903C1041.63 272.356 1042.4 273.173 1042.78 275.74L1043.06 277.605L1047.1 277.848C1051.81 278.13 1052.78 278.542 1052.78 280.263C1052.78 280.956 1053.03 281.523 1053.33 281.523C1053.64 281.523 1053.89 281.271 1053.89 280.963C1053.89 280.549 1054.54 280.403 1056.39 280.403C1058.52 280.403 1058.89 280.514 1058.89 281.15C1058.89 282.511 1062.26 284.135 1065.09 284.135C1066.18 284.135 1066.21 283.952 1066.02 278.594C1065.89 274.722 1065.61 272.876 1065.1 272.463C1064.49 271.97 1064.52 271.719 1065.27 270.951C1066.69 269.498 1067.28 263.923 1067.18 252.98L1067.09 242.905L1069.45 239.547C1070.75 237.7 1072.8 234.78 1074.01 233.058C1075.68 230.691 1076.14 229.651 1075.88 228.8C1075.66 228.066 1075.83 227.464 1076.35 227.076C1076.97 226.618 1077.24 224.738 1077.53 219.021C1077.73 214.92 1078.03 211.415 1078.19 211.233C1078.92 210.433 1079.96 212.904 1079.99 215.481C1080.01 217.021 1080.27 218.951 1080.58 219.772C1080.88 220.593 1081.22 222.657 1081.33 224.359C1081.44 226.061 1081.66 227.539 1081.81 227.645C1082.07 227.817 1093.4 228.566 1097.5 228.68L1099.17 228.727L1099.31 226.115C1099.39 224.679 1099.69 223.168 1099.96 222.757C1100.24 222.347 1100.62 220.374 1100.8 218.374C1101.11 214.96 1101.87 212.87 1102.81 212.87C1103.67 212.87 1103.85 214.16 1103.6 218.494C1103.45 221.186 1103.59 223.613 1103.96 224.551C1104.3 225.411 1104.54 226.619 1104.5 227.235C1104.47 227.85 1104.42 228.858 1104.39 229.473C1104.37 230.162 1106.18 233.102 1109.11 237.122L1113.86 243.652L1113.42 253.166C1113.15 258.935 1113.18 263.341 1113.5 264.36C1113.79 265.283 1114.07 271.831 1114.13 278.911C1114.27 296.441 1114.21 295.701 1115.56 295.701C1116.74 295.701 1117.11 294.742 1116.01 294.498C1115.65 294.417 1115.55 294.149 1115.77 293.901C1116.34 293.289 1117.22 293.715 1117.22 294.597C1117.22 295.427 1120.07 296.119 1120.44 295.378C1120.57 295.108 1121.4 295.374 1122.57 296.066C1123.62 296.686 1124.97 297.194 1125.57 297.194C1126.18 297.194 1126.67 297.347 1126.67 297.534C1126.67 298.042 1128.23 297.79 1129.46 297.085C1130.05 296.745 1130.92 296.564 1131.39 296.685C1132.4 296.945 1133.83 296.222 1134.44 295.147C1134.78 294.541 1135.42 294.359 1137.39 294.301C1138.88 294.258 1140.94 293.84 1142.42 293.285C1143.81 292.767 1145.58 292.343 1146.36 292.343C1147.57 292.343 1147.78 292.511 1147.78 293.463C1147.78 294.078 1148.03 294.582 1148.33 294.582C1148.64 294.582 1148.89 294.372 1148.9 294.115C1148.9 293.793 1149.03 293.776 1149.31 294.06C1149.54 294.285 1150.28 294.667 1150.96 294.908C1152 295.276 1152.15 295.256 1151.87 294.78C1151.44 294.025 1153.11 293.622 1154.19 294.222C1154.89 294.609 1155.17 294.569 1155.79 293.994C1156.21 293.61 1156.47 292.989 1156.36 292.615C1156.25 292.24 1156.53 291.839 1156.97 291.725C1157.61 291.559 1157.79 290.56 1157.82 286.8C1157.85 284.205 1158.16 281.328 1158.52 280.405C1159.14 278.794 1159.27 278.716 1161.77 278.411C1164.23 278.111 1164.38 278.021 1164.64 276.73C1164.79 275.98 1164.95 274.527 1164.99 273.501C1165.08 271.297 1165.68 270.717 1167.23 271.365C1169.1 272.149 1172.56 271.933 1174.04 270.94C1175.26 270.118 1175.55 270.085 1178.2 270.45C1179.77 270.665 1180.94 270.96 1180.81 271.106C1180.07 271.91 1184.89 272.054 1186.42 271.274C1187.66 270.643 1191.5 270.556 1194.72 271.086C1198.64 271.731 1207.84 271.927 1210.15 271.416C1211.76 271.059 1212.41 271.052 1212.91 271.385C1213.71 271.923 1218.55 271.983 1218.06 271.449C1217.28 270.61 1224.57 271.411 1225.92 272.312C1226.12 272.453 1226.83 272.568 1227.48 272.568C1229.32 272.568 1230 273.303 1230 275.28C1230 276.933 1230.1 277.074 1231.12 276.856C1232.87 276.484 1235.5 277.024 1236.2 277.899C1236.59 278.394 1236.81 280.657 1236.77 283.934C1236.74 287.008 1236.95 289.408 1237.29 289.734C1237.72 290.154 1237.93 290.176 1238.14 289.825C1238.49 289.256 1240.53 289.223 1241.67 289.768C1242.29 290.069 1242.02 290.111 1240.56 289.941C1238.68 289.723 1238.65 289.735 1239.83 290.288C1241.26 290.963 1245.56 291.328 1245.56 290.775C1245.56 290.568 1245.93 290.493 1246.38 290.61C1246.87 290.736 1247.45 290.519 1247.8 290.08C1248.12 289.672 1248.62 289.433 1248.9 289.55C1249.47 289.785 1252.22 288.696 1252.22 288.237C1252.22 288.079 1251.91 287.956 1251.53 287.966C1249.59 288.014 1248.33 287.827 1248.33 287.493C1248.33 287.287 1248.92 287.12 1249.64 287.12C1250.35 287.12 1251.4 286.781 1251.95 286.366C1252.89 285.669 1253.14 284.826 1253.5 281.037C1253.58 280.257 1253.96 279.487 1254.34 279.326C1255.19 278.975 1255.74 275.245 1255.28 273.054C1255.01 271.826 1254.75 271.536 1254.06 271.714C1253.12 271.958 1253.12 271.949 1254.68 269.891C1255.66 268.597 1255.67 268.447 1254.8 267.216C1254.29 266.498 1253.72 265.394 1253.54 264.762C1253.21 263.672 1253.56 263.41 1255.12 263.564C1255.33 263.585 1255.66 263.059 1255.84 262.395C1256.27 260.826 1256.41 243.438 1256.06 236.003C1255.91 232.822 1255.99 228.172 1256.24 225.67C1256.8 220.129 1256.08 212.2 1254.98 211.741C1254.34 211.476 1254.35 211.264 1255.03 210.412C1255.47 209.855 1255.76 209.099 1255.67 208.732C1255.38 207.605 1257.54 207.127 1263.72 206.951C1265.3 206.906 1265.55 206.748 1265.87 205.594C1266.26 204.199 1266.49 204.133 1270.38 204.269C1272.63 204.348 1272.72 204.308 1273.29 202.92C1273.62 202.133 1273.88 201.124 1273.89 200.677C1273.89 199.752 1276.3 198.318 1277.85 198.318C1278.69 198.318 1278.89 198.034 1278.89 196.856C1278.89 194.833 1279.35 194.214 1280.86 194.214C1281.57 194.214 1282.79 194.05 1283.58 193.85C1284.92 193.506 1285 193.34 1285.01 190.772C1285.01 189.279 1285.17 187.421 1285.36 186.643C1285.69 185.292 1285.74 185.267 1286.34 186.083C1286.82 186.723 1287.45 186.938 1288.87 186.938C1290.49 186.938 1290.82 186.783 1291.19 185.834C1291.49 185.087 1291.41 184.636 1290.96 184.44C1289.91 183.995 1286.97 184.087 1286.22 184.587C1285.7 184.936 1285.56 184.633 1285.56 183.224C1285.56 181.492 1285.6 181.44 1286.57 182.03C1287.24 182.437 1288.57 182.647 1290.46 182.647C1293.13 182.647 1293.34 182.582 1293.42 181.714C1293.46 181.201 1293.52 180.572 1293.56 180.315C1293.6 179.98 1292.44 179.849 1289.44 179.849H1285.28L1285.1 178.636C1284.94 177.478 1285.66 177.006 1286.39 177.797C1286.89 178.337 1290.95 178.259 1291.24 177.703C1291.37 177.447 1291.32 176.817 1291.13 176.304C1290.82 175.473 1290.48 175.368 1288.03 175.341L1285.28 175.31L1285.11 173.118C1284.81 169.274 1284.88 169.215 1289.99 169.215C1293.88 169.215 1294.48 169.307 1295.02 169.984C1295.86 171.037 1297.9 170.797 1298.39 169.588C1298.61 169.075 1298.81 166.473 1298.84 163.805C1298.91 158.945 1299.37 157.448 1300.56 158.248C1300.93 158.499 1301.21 160.828 1301.28 164.322C1301.4 170.375 1301.55 170.689 1304.31 170.702C1305.16 170.706 1305.56 170.932 1305.56 171.414C1305.56 172.153 1304.53 172.573 1302.73 172.573C1301.65 172.573 1301.44 172.902 1301.66 174.252C1301.84 175.405 1302.82 175.979 1304.4 175.857C1305.51 175.77 1305.83 175.909 1305.83 176.479C1305.83 177.045 1305.29 177.285 1303.47 177.527C1301.52 177.786 1301.11 177.988 1301.11 178.694C1301.11 179.984 1302.94 180.948 1304.4 180.423C1305.42 180.059 1305.64 180.133 1306.13 181.005C1306.44 181.555 1307.32 182.498 1308.07 183.101C1309.85 184.524 1309.81 185.181 1307.92 185.328C1305.95 185.479 1305.55 186.86 1307.14 188.001C1307.88 188.534 1308.38 189.59 1308.65 191.149C1308.91 192.744 1309.33 193.6 1309.95 193.823C1310.45 194.003 1312.85 194.336 1315.28 194.563C1317.7 194.79 1319.95 195.149 1320.26 195.361C1320.58 195.577 1320.78 197.089 1320.71 198.804C1320.54 203.225 1320.64 203.41 1323.59 203.707C1326.3 203.979 1326.67 204.206 1327.19 205.914C1327.53 207.038 1327.56 207.045 1331.41 207.089C1333.54 207.113 1335.7 207.263 1336.22 207.422C1336.74 207.582 1337.48 207.584 1337.86 207.427C1338.92 206.983 1351.27 206.899 1352.05 207.33C1352.42 207.538 1353.22 207.602 1353.82 207.473C1355.37 207.144 1373.94 207.023 1374.23 207.34C1374.36 207.483 1375.02 207.503 1375.71 207.384C1376.39 207.265 1377.72 207.133 1378.67 207.091C1379.61 207.049 1380.68 206.893 1381.03 206.746C1381.39 206.599 1382.11 206.566 1382.64 206.672C1384.55 207.053 1391.49 206.999 1397.13 206.558C1402.12 206.168 1403.04 206.184 1404.17 206.681C1404.89 206.996 1405.55 207.104 1405.65 206.921C1405.75 206.737 1408.71 206.47 1412.22 206.327C1415.74 206.184 1418.76 206.008 1418.94 205.937C1419.13 205.865 1421.93 205.638 1425.16 205.432C1429.15 205.178 1431.73 204.813 1433.16 204.299C1434.31 203.883 1435.62 203.542 1436.06 203.542C1436.5 203.542 1437.3 203.273 1437.84 202.945C1438.38 202.618 1439.08 202.46 1439.41 202.594C1439.83 202.767 1440 259.09 1440 392.92V583H720H0V433.07ZM857.713 302.329C857.794 300.433 858.048 298.712 858.278 298.504C858.507 298.296 858.732 297.346 858.777 296.392C858.851 294.836 858.747 294.677 857.763 294.849C857.16 294.955 856.652 295.316 856.634 295.651C856.194 303.77 856.242 305.775 856.876 305.775C857.364 305.775 857.608 304.768 857.713 302.329ZM1122.78 296.821C1122.78 296.615 1122.4 296.447 1121.94 296.447C1121.49 296.447 1121.11 296.615 1121.11 296.821C1121.11 297.026 1121.49 297.194 1121.94 297.194C1122.4 297.194 1122.78 297.026 1122.78 296.821ZM1140.08 296.074C1141.65 296.074 1142.52 295.58 1141.98 294.989C1141.8 294.798 1140.47 294.908 1138.9 295.244C1136.68 295.721 1136.27 295.936 1136.77 296.345C1137.21 296.697 1137.57 296.733 1137.98 296.463C1138.29 296.249 1139.24 296.074 1140.08 296.074ZM88.3333 291.037C88.3333 290.729 87.9277 290.478 87.432 290.478C86.6938 290.478 86.6558 290.579 87.2222 291.037C88.0931 291.742 88.3333 291.742 88.3333 291.037ZM10.6944 289.949C10.7708 289.761 10.5208 289.537 10.1389 289.452C9.75694 289.366 9.44444 289.576 9.44444 289.918C9.44444 290.55 10.4404 290.575 10.6944 289.949ZM85 288.985C85 288.78 84.75 288.612 84.4444 288.612C84.1389 288.612 83.8889 288.78 83.8889 288.985C83.8889 289.19 84.1389 289.358 84.4444 289.358C84.75 289.358 85 289.19 85 288.985ZM79.1667 284.321C79.1667 284.116 78.2292 283.896 77.0833 283.832C75.1296 283.724 74.4838 284.037 75.3967 284.65C75.9753 285.038 79.1667 284.76 79.1667 284.321ZM88.1146 283.454C88.1731 282.673 87.9451 282.269 87.4456 282.269C86.5793 282.269 85.8153 283.884 86.3875 284.506C87.0699 285.248 88.0238 284.667 88.1146 283.454ZM82.7719 283.953C83.1491 283.648 83.2994 283.121 83.1061 282.783C82.7842 282.219 82.6619 282.224 81.6551 282.836C81.0503 283.203 80.5556 283.73 80.5556 284.006C80.5556 284.677 81.9171 284.645 82.7719 283.953ZM91.1111 283.366C91.1111 283.173 90.7361 283.015 90.2778 283.015C89.4187 283.015 89.1741 283.456 89.7997 283.876C90.2436 284.174 91.1111 283.837 91.1111 283.366ZM78.1842 280.777C78.3709 280.777 78.9818 281.055 79.5418 281.395C80.9693 282.263 83.3333 281.547 83.3333 280.247C83.3333 279.059 82.5583 278.761 80.9837 279.343C80.2899 279.6 79.2847 279.765 78.75 279.71C78.2153 279.655 77.7778 279.777 77.7778 279.981C77.7778 280.185 77.2439 280.405 76.5914 280.471C75.9389 280.536 75.0338 280.967 74.5801 281.429C73.7955 282.226 73.8468 282.293 75.6276 282.799L77.5 283.33L77.6724 282.053C77.7673 281.351 77.9975 280.777 78.1842 280.777ZM159.444 282.664C159.444 282.471 159.194 282.209 158.889 282.083C158.583 281.956 158.333 282.114 158.333 282.434C158.333 282.754 158.583 283.015 158.889 283.015C159.194 283.015 159.444 282.857 159.444 282.664ZM159.444 280.03C159.444 279.62 159.194 279.284 158.889 279.284C158.583 279.284 158.333 279.62 158.333 280.03C158.333 280.441 158.583 280.777 158.889 280.777C159.194 280.777 159.444 280.441 159.444 280.03ZM87.3611 279.839C87.1564 279.296 85.9654 279.391 85.6768 279.973C85.5145 280.3 85.789 280.428 86.4638 280.341C87.0337 280.267 87.4375 280.041 87.3611 279.839ZM159.679 276.469C160.072 275.418 159.651 274.677 158.85 275.009C158.189 275.284 158.17 277.419 158.829 277.419C159.101 277.419 159.484 276.991 159.679 276.469ZM1340 261.375C1340 261.169 1339.62 261.001 1339.17 261.001C1338.71 261.001 1338.33 261.169 1338.33 261.375C1338.33 261.58 1338.71 261.748 1339.17 261.748C1339.62 261.748 1340 261.58 1340 261.375ZM1335.09 259.921C1335.19 259.737 1338.03 259.491 1341.39 259.372C1344.75 259.254 1349.25 258.897 1351.39 258.579C1353.53 258.261 1358.03 257.936 1361.39 257.857C1364.75 257.778 1367.89 257.608 1368.36 257.48C1368.84 257.352 1369.66 256.749 1370.2 256.141C1371.07 255.148 1371.19 253.491 1371.39 240.049C1371.56 228.286 1371.77 224.997 1372.33 224.755C1373.09 224.434 1374.72 224.364 1383.15 224.293C1385.94 224.269 1388.43 224.117 1388.68 223.954C1388.92 223.791 1389.06 222.192 1388.99 220.4C1388.9 218.201 1389.09 216.949 1389.57 216.549C1390.05 216.145 1392.03 215.818 1395.77 215.523C1398.79 215.285 1401.45 215.011 1401.69 214.913C1402.52 214.566 1401.55 213.327 1400.09 212.876C1399.23 212.611 1396.45 212.433 1393.47 212.451C1389.28 212.476 1388.33 212.38 1388.33 211.93C1388.33 211.204 1387.97 211.232 1386.17 212.097C1385.19 212.564 1384.39 212.704 1383.88 212.495C1383.46 212.318 1382.89 212.265 1382.62 212.377C1382.18 212.558 1379.66 212.562 1367.78 212.398C1366.1 212.375 1363.85 212.381 1362.78 212.411C1361.71 212.442 1359.58 212.467 1358.06 212.468C1356.53 212.468 1353.65 212.498 1351.67 212.533C1349.68 212.569 1346.93 212.572 1345.56 212.541C1342.12 212.464 1333.65 212.753 1330.22 213.067L1327.37 213.325L1327.02 216.139C1326.57 219.744 1326.56 257.177 1327.01 258.696C1327.3 259.685 1327.63 259.862 1329.37 259.986C1333.33 260.268 1334.91 260.25 1335.09 259.921ZM1291.02 190.344C1291.25 188.956 1290.47 188.422 1288.98 188.957C1288.01 189.308 1287.69 190.445 1288.27 191.535C1288.3 191.6 1288.9 191.6 1289.58 191.535C1290.49 191.448 1290.88 191.124 1291.02 190.344ZM1293.33 186.027C1293.33 185.424 1293.08 184.826 1292.78 184.699C1292.45 184.562 1292.22 185.006 1292.22 185.797C1292.22 186.527 1292.47 187.125 1292.78 187.125C1293.08 187.125 1293.33 186.631 1293.33 186.027ZM1297.32 185.015C1298.7 184.173 1298.6 183.153 1297.09 182.89C1295.45 182.602 1295.06 182.956 1295.4 184.42C1295.72 185.807 1295.92 185.867 1297.32 185.015ZM1303.89 183.54C1303.89 183.254 1303.39 183.02 1302.78 183.02C1301.73 183.02 1301.27 183.747 1302 184.238C1302.54 184.601 1303.89 184.103 1303.89 183.54ZM1298.22 179.961C1298.59 179.715 1298.89 179.127 1298.89 178.655C1298.89 177.805 1298.78 177.772 1295.45 177.628C1294.93 177.606 1294.32 177.467 1294.1 177.319C1293.4 176.848 1292.22 177.031 1292.22 177.61C1292.22 177.924 1292.72 178.17 1293.35 178.17C1294.37 178.17 1294.63 178.404 1295.31 179.942C1295.58 180.535 1297.35 180.547 1298.22 179.961ZM1297.66 175.465C1298.21 175.01 1298.53 173.979 1298.4 173.04C1298.36 172.78 1297.6 172.573 1296.67 172.573C1295.1 172.573 1295 172.663 1295 174.003C1295 174.79 1295.17 175.546 1295.37 175.682C1295.96 176.076 1297.03 175.973 1297.66 175.465ZM1293.89 172.727C1293.89 170.71 1292.96 170.419 1288.19 170.947C1286.46 171.139 1286.11 171.329 1286.11 172.074C1286.11 173.18 1287.64 173.631 1291.25 173.593C1293.6 173.568 1293.89 173.474 1293.89 172.727ZM257.222 163.059C257.222 162.775 256.972 162.439 256.667 162.312C256.35 162.181 256.111 162.502 256.111 163.059C256.111 163.615 256.35 163.936 256.667 163.805C256.972 163.678 257.222 163.342 257.222 163.059ZM262.778 161.709C262.778 161.504 262.528 161.439 262.222 161.566C261.917 161.693 261.667 161.965 261.667 162.17C261.667 162.375 261.917 162.439 262.222 162.312C262.528 162.186 262.778 161.914 262.778 161.709ZM264.617 155.993C265.252 155.67 265.405 155.392 265.033 155.237C264.138 154.866 264.329 153.87 265.396 153.346C266.207 152.948 266.236 152.789 265.594 152.269C264.899 151.707 264.757 151.711 263.759 152.317C262.726 152.945 262.645 152.945 261.948 152.304C261.454 151.851 261.093 151.77 260.832 152.053C260.62 152.283 260.89 152.801 261.432 153.203C262.188 153.764 262.266 154.037 261.765 154.374C260.9 154.955 260.94 155.241 261.984 155.943C263.036 156.649 263.318 156.655 264.617 155.993ZM268.333 155.596C268.333 155.289 267.958 155.037 267.5 155.037C267.042 155.037 266.667 155.289 266.667 155.596C266.667 155.904 267.042 156.156 267.5 156.156C267.958 156.156 268.333 155.904 268.333 155.596ZM274.167 152.798C273.721 152.314 272.222 152.314 272.222 152.798C272.222 153.003 272.737 153.171 273.366 153.171C273.995 153.171 274.355 153.003 274.167 152.798ZM266.422 150.897C267.08 150.181 265.472 148.694 264.04 148.694C263.296 148.694 262.863 148.858 263.056 149.067C263.244 149.272 263.134 149.44 262.811 149.44C261.878 149.44 262.391 150.328 263.611 150.826C265.011 151.397 265.94 151.42 266.422 150.897ZM265.929 147.863C268.513 148.058 269.437 147.686 269.419 146.455C269.412 146.017 269.288 146.037 268.844 146.548C268.128 147.375 266.893 147.39 266.429 146.578C265.986 145.802 267.104 145.302 268.685 145.568C269.341 145.679 270.029 145.606 270.213 145.406C270.397 145.206 269.862 144.927 269.024 144.787C268.186 144.646 267.061 144.265 266.523 143.94C265.611 143.388 265.608 143.303 266.47 142.663C267.201 142.121 267.231 141.979 266.614 141.983C264.874 141.994 263.361 142.453 263.724 142.86C263.932 143.093 263.673 143.05 263.149 142.764C261.827 142.044 261.566 142.354 261.288 144.975C261.045 147.274 261.824 148.737 262.904 148.012C263.182 147.825 264.544 147.758 265.929 147.863ZM270.833 142.724C270.393 142.246 270 142.246 270 142.724C270 142.929 270.265 143.097 270.588 143.097C270.912 143.097 271.022 142.929 270.833 142.724ZM273.634 140.833C274.145 140.278 273.552 139.976 272.489 140.25C271.998 140.376 271.752 140.649 271.942 140.856C272.392 141.345 273.173 141.335 273.634 140.833ZM263.201 138.243C262.811 137.823 262.412 137.678 262.295 137.913C262.181 138.144 262.43 138.479 262.849 138.657C263.943 139.122 263.979 139.08 263.201 138.243ZM266.111 136.919C266.111 136.117 264.989 135.885 263.571 136.395C262.377 136.824 262.337 136.915 263.163 137.321C264.264 137.861 266.111 137.609 266.111 136.919ZM269.444 137.127C270.118 136.835 270.039 136.764 269.028 136.76C268.34 136.757 267.778 136.922 267.778 137.127C267.778 137.595 268.367 137.595 269.444 137.127ZM1127.22 294.379C1127.22 293.806 1127.41 293.49 1127.64 293.676C1127.87 293.862 1128.25 294.114 1128.5 294.237C1128.74 294.36 1128.55 294.677 1128.08 294.94C1127.34 295.353 1127.22 295.276 1127.22 294.379ZM1245.56 287.471C1245.56 287.253 1245.31 287.179 1245 287.306C1244.69 287.433 1244.44 287.377 1244.44 287.182C1244.44 286.986 1244.82 286.73 1245.28 286.611C1245.84 286.465 1246.11 286.632 1246.11 287.131C1246.11 287.535 1245.99 287.866 1245.83 287.866C1245.68 287.866 1245.56 287.688 1245.56 287.471ZM512.221 286.28C512.221 286.229 511.85 284.771 511.396 283.041C510.566 279.871 510.592 279.398 511.573 279.805C512.279 280.098 514.063 285.509 513.615 285.996C513.315 286.322 512.224 286.544 512.221 286.28ZM1238.08 282.674C1237.91 282.48 1238 282.222 1238.29 282.102C1238.58 281.982 1238.96 282.043 1239.14 282.237C1239.32 282.432 1239.23 282.689 1238.94 282.809C1238.65 282.929 1238.26 282.868 1238.08 282.674ZM1238.11 280.502C1237.5 280.095 1237.76 279.688 1238.89 279.284C1239.82 278.949 1240 279 1240 279.604C1240 280.323 1238.74 280.923 1238.11 280.502ZM50.5556 276.837C50.5556 276.517 50.8056 276.359 51.1111 276.486C51.8299 276.784 51.8299 277.419 51.1111 277.419C50.8056 277.419 50.5556 277.157 50.5556 276.837ZM62.7778 276.321C62.7778 276.128 63.0278 275.866 63.3333 275.74C63.6389 275.613 63.8889 275.771 63.8889 276.091C63.8889 276.411 63.6389 276.672 63.3333 276.672C63.0278 276.672 62.7778 276.514 62.7778 276.321ZM60.0177 274.353C60.0349 273.885 61.6667 272.202 61.6667 272.653C61.6667 272.778 61.8111 273.133 61.9876 273.442C62.1817 273.782 61.8527 274.167 61.1542 274.418C60.2633 274.738 60.0041 274.724 60.0177 274.353ZM54.4621 272.069C54.4512 271.645 55.0783 271.223 56.1111 270.961C57.0278 270.729 57.7778 270.408 57.7778 270.248C57.7778 270.087 58.1528 269.956 58.6111 269.956C59.9099 269.956 59.5898 270.957 58.1944 271.259C57.5069 271.408 56.7288 271.505 56.4653 271.475C56.2018 271.445 55.6473 271.721 55.233 272.088C54.512 272.726 54.479 272.725 54.4621 272.069ZM74.4444 269.653C74.4444 269.457 75.0793 269.216 75.8553 269.116C76.7458 269.002 77.1908 269.089 77.0618 269.352C76.8082 269.87 74.4444 270.141 74.4444 269.653ZM55 268.672C55 268.377 55.2238 268.042 55.4973 267.928C56.0692 267.691 56.7588 268.651 56.258 268.987C55.6619 269.387 55 269.222 55 268.672ZM60 268.623C60 268.276 60.378 268.085 60.9262 268.157C62.3199 268.338 62.5113 269.21 61.1574 269.21C60.475 269.21 60 268.969 60 268.623ZM89.3993 265.759C89.3745 265.707 89.3037 265.204 89.2421 264.639C89.0981 263.321 90.6768 263.236 91.5443 264.515C92.0368 265.241 91.9913 265.459 91.3103 265.634C90.4359 265.859 89.4783 265.922 89.3993 265.759ZM699.585 254.845C699.578 254.024 699.687 253.645 699.826 254.001C699.965 254.358 699.97 255.03 699.837 255.494C699.704 255.958 699.591 255.666 699.585 254.845ZM485.765 252.434C485.967 250.801 486.275 245.47 486.449 240.588C486.794 230.861 487.765 227.715 487.86 236.013C487.931 242.23 487.915 243.867 487.746 247.29C487.673 248.777 487.795 250.969 488.017 252.16C488.44 254.429 487.906 255.405 486.241 255.405C485.524 255.405 485.452 254.953 485.765 252.434ZM98.9327 231.743C98.9086 231.35 99.0399 231.129 99.2246 231.253C99.4092 231.377 99.4289 231.699 99.2684 231.968C99.0911 232.266 98.9594 232.178 98.9327 231.743ZM409.444 210.609C409.444 209.943 409.676 209.564 410 209.698C410.723 209.998 410.723 211.75 410 211.75C409.694 211.75 409.444 211.237 409.444 210.609ZM254.444 153.482C254.444 152.422 254.536 151.624 254.648 151.71C255.121 152.07 255.377 155.41 254.932 155.41C254.664 155.41 254.444 154.542 254.444 153.482ZM254.294 150.707C254.071 150.557 253.918 149.498 253.954 148.352L254.019 146.268L254.52 148.299C255.045 150.424 254.975 151.165 254.294 150.707ZM281.754 149.44C281.754 148.927 281.88 148.717 282.035 148.974C282.189 149.23 282.189 149.65 282.035 149.906C281.88 150.163 281.754 149.953 281.754 149.44ZM281.667 147.41C281.667 146.754 282 146.658 282.476 147.176C282.652 147.367 282.542 147.628 282.231 147.757C281.921 147.886 281.667 147.73 281.667 147.41ZM253.262 142.444C253.222 141.674 253.119 140.331 253.033 139.459C252.947 138.587 253.104 137.873 253.383 137.873C253.661 137.873 253.892 138.839 253.896 140.019C253.901 141.199 254.055 142.542 254.239 143.004C254.44 143.507 254.326 143.843 253.954 143.843C253.612 143.843 253.301 143.214 253.262 142.444ZM255.564 135.004C255.57 133.708 255.722 133.365 256.111 133.769C256.818 134.503 256.818 136.274 256.111 136.567C255.77 136.709 255.559 136.106 255.564 135.004ZM279.488 135.479C279.464 135.086 279.596 134.866 279.78 134.989C279.965 135.113 279.984 135.435 279.824 135.705C279.647 136.002 279.515 135.914 279.488 135.479ZM871.667 14.9319C871.667 13.8903 873.013 13.6457 873.552 14.5893C874.115 15.5754 873.94 15.8647 872.778 15.8647C871.963 15.8647 871.667 15.616 871.667 14.9319Z" fill="url(#paint0_linear_2_2125)"/>
<g clip-path="url(#clip4_2_2125)">
<path d="M1204.83 70.14C1202.12 58.065 1190.26 49 1176 49C1164.68 49 1154.85 54.74 1149.95 63.14C1144.2 63.6959 1138.87 66.1332 1135.01 69.9836C1131.14 73.834 1129 78.8259 1129 84C1129 95.585 1139.54 105 1152.5 105H1203.42C1214.23 105 1223 97.16 1223 87.5C1223 78.26 1214.97 70.77 1204.83 70.14Z" fill="white" fill-opacity="0.8"/>
</g>
<defs>
<linearGradient id="paint0_linear_2_2125" x1="720" y1="14" x2="720" y2="583" gradientUnits="userSpaceOnUse">
<stop stop-color="#6F95A2" stop-opacity="0.13"/>
<stop offset="1" stop-color="#097192"/>
</linearGradient>
<clipPath id="clip0_2_2125">
<rect width="81" height="72" fill="white" transform="translate(1170 151)"/>
</clipPath>
<clipPath id="clip1_2_2125">
<rect width="77.8769" height="69.5921" fill="white" transform="translate(995 131.395) rotate(-0.290169)"/>
</clipPath>
<clipPath id="clip2_2_2125">
<rect width="77.8769" height="69.5921" fill="white" transform="translate(483 79.3945) rotate(-0.290169)"/>
</clipPath>
<clipPath id="clip3_2_2125">
<rect width="128" height="114" fill="white" transform="translate(867)"/>
</clipPath>
<clipPath id="clip4_2_2125">
<rect width="94" height="84" fill="white" transform="translate(1129 35)"/>
</clipPath>
</defs>
</svg>
