<svg width="1419" height="356" viewBox="0 0 1419 356" fill="none" xmlns="http://www.w3.org/2000/svg">
<g clip-path="url(#clip0_2_425)">
<path opacity="0.2" d="M1259.44 331.606C1251.64 326.062 1242.92 321.34 1233.42 317.624C1231.61 319.216 1229.38 321.407 1227.76 323.185C1217.59 319.438 1207.1 317.06 1196.27 316.05C1195.92 313.826 1195.25 310.98 1194.61 308.83C1184.17 308.028 1173.82 308.437 1163.78 309.951C1138.53 328.838 1126.56 350.125 1122 372.75C1131.54 382.978 1141.65 390.169 1152.06 395.735C1155.9 393.108 1159.5 390.206 1162.82 387.039C1159.13 384.791 1155.71 382.273 1152.6 379.543C1153.78 379.149 1154.95 378.722 1156.09 378.27C1175.91 392.36 1200.53 397.939 1225.76 394.055C1226.49 394.933 1227.25 395.796 1228.03 396.634C1223.7 397.688 1219.24 398.421 1214.72 398.809C1215.72 402.944 1217.11 406.986 1218.89 410.887C1231.21 410.472 1244.23 408.522 1258.54 403.689C1269.51 378.748 1268.8 354.808 1259.44 331.606ZM1171.7 369.461C1164.89 367.92 1161.02 361.29 1163.09 354.755C1165.16 348.22 1172.32 344.081 1179.24 345.649C1186.16 347.218 1190.04 353.848 1187.85 360.365C1185.79 366.902 1178.62 371.03 1171.7 369.461ZM1217.45 379.828C1210.65 378.287 1206.77 371.656 1208.84 365.121C1210.91 358.587 1218.07 354.448 1224.99 356.016C1231.92 357.584 1235.79 364.215 1233.6 370.732C1231.53 377.267 1224.37 381.396 1217.45 379.828Z" fill="black"/>
<path opacity="0.2" d="M1250.73 135.721C1243.94 134.702 1236.94 134.43 1229.89 134.971C1229.46 136.424 1229.03 138.345 1228.79 139.85C1221.34 140.564 1214.23 142.173 1207.49 144.678C1206.39 143.476 1204.86 141.998 1203.62 140.922C1197.19 143.439 1191.28 146.642 1186.01 150.4C1178.76 168.695 1180.26 184.594 1186.65 199.157C1196.33 202.421 1205.13 203.743 1213.46 204.025C1214.66 201.387 1215.61 198.656 1216.29 195.852C1213.22 195.589 1210.22 195.091 1207.3 194.383C1207.83 193.814 1208.34 193.23 1208.83 192.638C1226.09 195.224 1242.75 191.449 1255.98 181.956C1256.76 182.26 1257.55 182.549 1258.34 182.817C1256.23 184.673 1253.91 186.378 1251.41 187.9C1253.65 190.036 1256.08 192.008 1258.69 193.784C1265.74 190.016 1272.59 185.148 1279.05 178.221C1275.49 160.467 1265.5 146.642 1250.73 135.721ZM1214.46 183.01C1209.85 184.053 1204.93 181.277 1203.53 176.855C1202.12 172.433 1204.67 167.958 1209.35 166.897C1214.03 165.836 1218.96 168.612 1220.28 173.058C1221.69 177.479 1219.14 181.949 1214.46 183.01ZM1245.42 175.995C1240.81 177.038 1235.89 174.262 1234.49 169.84C1233.09 165.418 1235.63 160.943 1240.31 159.882C1244.99 158.82 1249.92 161.596 1251.24 166.043C1252.64 170.465 1250.1 174.934 1245.42 175.995Z" fill="black"/>
<path opacity="0.2" d="M1405.74 8.04858C1401.54 5.0648 1396.85 2.52403 1391.74 0.523974C1390.76 1.381 1389.56 2.56009 1388.69 3.51654C1383.22 1.50034 1377.57 0.220515 1371.74 -0.322939C1371.55 -1.51977 1371.2 -3.05151 1370.85 -4.20833C1365.23 -4.63983 1359.66 -4.41987 1354.26 -3.6051C1340.67 6.55899 1334.23 18.0143 1331.77 30.19C1336.91 35.6943 1342.35 39.5639 1347.95 42.5593C1350.02 41.1455 1351.96 39.584 1353.74 37.8796C1351.76 36.6697 1349.92 35.3148 1348.24 33.8455C1348.88 33.6336 1349.5 33.404 1350.12 33.1604C1360.79 40.7433 1374.04 43.7454 1387.61 41.6556C1388.01 42.1277 1388.41 42.5924 1388.83 43.0434C1386.5 43.6103 1384.11 44.005 1381.67 44.2139C1382.21 46.4388 1382.96 48.6142 1383.92 50.7134C1390.55 50.4903 1397.55 49.4406 1405.25 46.8397C1411.16 33.4181 1410.77 20.5347 1405.74 8.04858ZM1358.52 28.4202C1354.86 27.5907 1352.77 24.0226 1353.88 20.5058C1355 16.989 1358.85 14.7618 1362.58 15.6058C1366.3 16.4497 1368.39 20.0178 1367.21 23.5251C1366.1 27.0432 1362.24 29.2642 1358.52 28.4202ZM1383.14 33.9991C1379.48 33.1697 1377.39 29.6015 1378.51 26.0847C1379.62 22.568 1383.48 20.3407 1387.2 21.1847C1390.93 22.0287 1393.01 25.5967 1391.83 29.104C1390.72 32.6208 1386.86 34.8431 1383.14 33.9991Z" fill="black"/>
<path opacity="0.2" d="M37.3713 14.2623C30.3717 13.2223 23.1532 12.9495 15.875 13.5119C15.4325 15.0053 14.9883 16.9797 14.7407 18.5263C7.04888 19.2661 -0.278448 20.9264 -7.24125 23.5071C-8.36998 22.2723 -9.94477 20.7553 -11.2187 19.6509C-17.8618 22.2428 -23.9574 25.5394 -29.4024 29.406C-36.8974 48.2111 -35.3684 64.5465 -28.8051 79.5044C-18.822 82.8494 -9.74658 84.1992 -1.1554 84.4815C0.0844348 81.7696 1.06719 78.9628 1.7668 76.0809C-1.38942 75.8139 -4.49263 75.3051 -7.5022 74.58C-6.95004 73.9952 -6.41909 73.3943 -5.91506 72.7855C11.8768 75.427 29.0648 71.5325 42.7221 61.7651C43.5262 62.0775 44.3413 62.3734 45.1577 62.6482C42.9745 64.5568 40.5804 66.3112 38.0049 67.8769C40.3127 70.0704 42.818 72.0939 45.5027 73.9164C52.7836 70.0378 59.8525 65.0301 66.5183 57.9057C62.8785 39.6664 52.5853 25.47 37.3713 14.2623ZM-0.103828 62.8876C-4.85258 63.9636 -9.92895 61.1157 -11.3683 56.5731C-12.8077 52.0305 -10.1806 47.4302 -5.34869 46.3354C-0.516648 45.2405 4.55956 48.0883 5.91787 52.6563C7.36478 57.1972 4.72821 61.7928 -0.103828 62.8876ZM31.837 55.6503C27.0883 56.7263 22.0119 53.8784 20.5725 49.3358C19.1331 44.7932 21.7602 40.193 26.5922 39.0981C31.4241 38.0033 36.5004 40.8511 37.8587 45.4191C39.2981 49.9617 36.669 54.5555 31.837 55.6503Z" fill="black"/>
<path opacity="0.2" d="M355.564 246.254C352.87 242.986 349.646 239.993 345.929 237.371C344.892 237.9 343.586 238.656 342.61 239.287C338.601 236.585 334.251 234.461 329.559 232.916C329.718 231.885 329.826 230.544 329.844 229.518C325.296 228.105 320.612 227.242 315.915 226.907C301.949 232.809 293.577 241.126 288.326 250.79C291.133 256.33 294.626 260.568 298.487 264.11C300.575 263.322 302.596 262.387 304.526 261.304C303.199 259.926 302.031 258.455 301.027 256.918C301.61 256.861 302.193 256.788 302.767 256.701C309.618 265.007 319.822 269.989 331.642 270.798C331.844 271.265 332.061 271.728 332.29 272.181C330.207 272.216 328.112 272.094 326.036 271.811C325.895 273.762 325.941 275.711 326.183 277.637C331.745 278.695 337.837 279.136 344.917 278.419C353.361 268.366 356.444 257.581 355.564 246.254ZM310.991 254.335C308.171 252.959 307.382 249.6 309.236 246.885C311.089 244.17 314.877 243.041 317.746 244.442C320.614 245.842 321.404 249.2 319.498 251.895C317.649 254.613 313.859 255.736 310.991 254.335ZM329.953 263.593C327.134 262.217 326.344 258.858 328.198 256.143C330.052 253.428 333.839 252.299 336.708 253.7C339.577 255.1 340.366 258.458 338.461 261.153C336.607 263.869 332.822 264.994 329.953 263.593Z" fill="black"/>
<path opacity="0.2" d="M1434.28 246.254C1431.58 242.986 1428.36 239.993 1424.64 237.371C1423.6 237.9 1422.3 238.656 1421.32 239.287C1417.31 236.585 1412.96 234.461 1408.27 232.916C1408.43 231.885 1408.54 230.544 1408.56 229.518C1404.01 228.105 1399.32 227.242 1394.63 226.907C1380.66 232.809 1372.29 241.126 1367.04 250.79C1369.84 256.33 1373.34 260.568 1377.2 264.11C1379.29 263.322 1381.31 262.387 1383.24 261.304C1381.91 259.926 1380.74 258.455 1379.74 256.918C1380.32 256.861 1380.9 256.788 1381.48 256.701C1388.33 265.007 1398.53 269.989 1410.35 270.798C1410.56 271.265 1410.77 271.728 1411 272.181C1408.92 272.216 1406.82 272.094 1404.75 271.811C1404.61 273.762 1404.65 275.711 1404.89 277.637C1410.46 278.695 1416.55 279.136 1423.63 278.419C1432.07 268.366 1435.16 257.581 1434.28 246.254ZM1389.7 254.335C1386.88 252.959 1386.09 249.6 1387.95 246.885C1389.8 244.17 1393.59 243.041 1396.46 244.442C1399.33 245.842 1400.11 249.2 1398.21 251.895C1396.36 254.613 1392.57 255.736 1389.7 254.335ZM1408.66 263.593C1405.85 262.217 1405.06 258.858 1406.91 256.143C1408.76 253.428 1412.55 252.299 1415.42 253.7C1418.29 255.1 1419.08 258.458 1417.17 261.153C1415.32 263.869 1411.53 264.994 1408.66 263.593Z" fill="black"/>
<path opacity="0.2" d="M129.36 330.834C121.563 325.289 112.843 320.568 103.339 316.851C101.523 318.444 99.2964 320.635 97.6766 322.412C87.5099 318.666 77.014 316.288 66.1889 315.278C65.8373 313.054 65.1719 310.207 64.5296 308.058C54.0914 307.256 43.734 307.665 33.6997 309.179C8.44342 328.066 -3.52577 349.352 -8.08283 371.978C1.45815 382.206 11.5669 389.396 21.9814 394.962C25.8207 392.335 29.4218 389.434 32.7356 386.267C29.0481 384.018 25.6317 381.501 22.5149 378.77C23.6961 378.377 24.8646 377.95 26.0063 377.497C45.8282 391.588 70.4487 397.166 95.6758 393.283C96.4079 394.16 97.1674 395.024 97.9467 395.862C93.6192 396.915 89.1612 397.649 84.6382 398.037C85.6384 402.171 87.0277 406.214 88.81 410.115C101.131 409.7 114.148 407.749 128.462 402.916C139.429 377.976 138.714 354.036 129.36 330.834ZM41.6142 368.689C34.8119 367.147 30.9339 360.517 33.0046 353.982C35.0754 347.447 42.238 343.308 49.1594 344.877C56.081 346.445 59.9588 353.075 57.766 359.593C55.706 366.13 48.5357 370.257 41.6142 368.689ZM87.3673 379.056C80.565 377.514 76.6871 370.884 78.7578 364.349C80.8285 357.814 87.991 353.675 94.9125 355.244C101.834 356.812 105.712 363.442 103.519 369.96C101.448 376.494 94.2887 380.624 87.3673 379.056Z" fill="black"/>
<path opacity="0.2" d="M392.149 73.818C399.168 69.6786 405.596 64.7267 411.229 59.0184C410.092 57.4249 408.47 55.4192 407.114 53.9203C412.919 47.7633 417.48 41.0819 420.799 33.8761C423.012 34.1201 425.891 34.2847 428.096 34.3132C431.131 27.3274 432.984 20.1329 433.706 12.9189C421.036 -8.52832 403.178 -21.384 382.426 -29.447C370.528 -25.1336 361.426 -19.7678 353.819 -13.8379C355.51 -10.6308 357.517 -7.52731 359.842 -4.56298C362.802 -6.60205 365.962 -8.39641 369.262 -9.93879C369.384 -9.04261 369.541 -8.14788 369.728 -7.26583C351.889 3.25758 341.188 18.9303 339.448 37.0837C338.446 37.3945 337.452 37.7271 336.478 38.0789C336.404 34.8803 336.666 31.662 337.274 28.4745C333.085 28.2585 328.899 28.3295 324.764 28.7011C322.49 37.2441 321.541 46.5994 323.081 57.4731C344.667 70.439 367.826 75.1723 392.149 73.818ZM374.807 5.36328C377.763 1.03316 384.975 -0.180426 390.805 2.66603C396.636 5.51249 399.059 11.3292 396.051 15.7352C393.043 20.1412 385.831 21.3548 380.044 18.4284C374.209 15.5888 371.798 9.76935 374.807 5.36328ZM354.921 34.4884C357.878 30.1583 365.09 28.9447 370.92 31.7911C376.75 34.6376 379.174 40.4542 376.166 44.8603C373.157 49.2662 365.945 50.4799 360.158 47.5535C354.328 44.707 351.913 38.8943 354.921 34.4884Z" fill="black"/>
<path opacity="0.2" d="M184.954 112.406C174.923 110.901 164.579 110.5 154.152 111.299C153.521 113.446 152.888 116.285 152.536 118.509C141.516 119.563 131.02 121.941 121.048 125.644C119.429 123.866 117.169 121.683 115.342 120.093C105.828 123.812 97.1002 128.545 89.3054 134.099C78.6004 161.134 80.8211 184.629 90.2524 206.15C104.563 210.974 117.569 212.927 129.879 213.344C131.651 209.445 133.054 205.41 134.051 201.266C129.528 200.878 125.081 200.142 120.767 199.096C121.557 198.255 122.317 197.392 123.038 196.517C148.536 200.339 173.157 194.76 192.708 180.731C193.86 181.181 195.029 181.608 196.199 182.004C193.074 184.746 189.647 187.266 185.96 189.515C189.27 192.672 192.864 195.586 196.714 198.21C207.139 192.642 217.259 185.449 226.797 175.211C221.548 148.975 206.774 128.545 184.954 112.406ZM131.347 182.289C124.544 183.831 117.266 179.728 115.195 173.193C113.124 166.658 116.88 160.046 123.801 158.477C130.723 156.909 138.002 161.011 139.956 167.583C142.038 174.115 138.268 180.721 131.347 182.289ZM177.1 171.923C170.298 173.464 163.019 169.361 160.948 162.826C158.877 156.291 162.633 149.679 169.555 148.111C176.476 146.542 183.755 150.645 185.709 157.216C187.78 163.751 184.021 170.354 177.1 171.923Z" fill="black"/>
<path opacity="0.2" d="M1035.5 -31.3537C1028.94 -24.7599 1023.36 -17.3859 1018.96 -9.34995C1020.85 -7.81402 1023.44 -5.93104 1025.54 -4.56136C1021.11 4.03584 1018.29 12.9114 1017.1 22.0653C1014.47 22.3627 1011.1 22.9253 1008.56 23.4685C1007.61 32.2952 1008.1 41.0537 1009.89 49.5389C1032.22 70.8961 1057.4 81.0175 1084.15 84.8711C1096.25 76.803 1104.75 68.2548 1111.33 59.4481C1108.23 56.2015 1104.79 53.1563 1101.05 50.3542C1098.39 53.4724 1095.41 56.3614 1092.18 58.997C1091.72 57.9982 1091.21 57.01 1090.68 56.0445C1107.34 39.2828 1113.94 18.4632 1109.35 -2.86945C1110.38 -3.48848 1111.41 -4.13071 1112.4 -4.78973C1113.64 -1.13034 1114.51 2.63951 1114.97 6.46419C1119.86 5.61844 1124.64 4.44363 1129.25 2.93642C1128.76 -7.48273 1126.45 -18.49 1120.74 -30.5937C1091.25 -39.8682 1062.93 -39.2637 1035.5 -31.3537ZM1080.26 42.8463C1078.44 48.5984 1070.6 51.8777 1062.87 50.1266C1055.14 48.3756 1050.25 42.3187 1052.1 36.4658C1053.96 30.6128 1061.8 27.3336 1069.51 29.1879C1077.24 30.9299 1082.12 36.9932 1080.26 42.8463ZM1092.52 4.15644C1090.7 9.90857 1082.86 13.1879 1075.13 11.4368C1067.4 9.68579 1062.51 3.62905 1064.36 -2.22397C1066.22 -8.07683 1074.06 -11.3562 1081.77 -9.50188C1089.49 -7.75084 1094.38 -1.69642 1092.52 4.15644Z" fill="black"/>
</g>
<defs>
<clipPath id="clip0_2_425">
<rect width="1419" height="356" fill="white"/>
</clipPath>
</defs>
</svg>
