<svg width="1440" height="291" viewBox="0 0 1440 291" fill="none" xmlns="http://www.w3.org/2000/svg">
<path fill-rule="evenodd" clip-rule="evenodd" d="M-258 291L-196.372 116.4L-137.027 145.5L-75.4 58.2H-13.7725L45.5725 203.7L107.2 29.1L168.828 87.3L228.173 291L289.8 261.9H351.428L410.773 87.3L472.4 145.5L534.028 174.6L593.373 58.2L655 145.5L716.628 116.4L775.973 203.7H837.6L899.228 58.2L958.573 203.7L1020.2 87.3L1081.83 203.7L1141.17 145.5L1202.8 203.7L1264.43 261.9L1323.77 58.2L1385.4 145.5L1447.03 203.7L1506.37 0L1568 174.6L1629.63 87.3L1688.97 261.9L1750.6 87.3L1812.23 203.7L1871.57 174.6L1933.2 261.9L1994.83 29.1L2054.17 116.4L2115.8 203.7L2177.43 145.5L2236.77 29.1L2298.4 232.8L2360.03 58.2L2419.37 116.4H2481V291H2419.37H2360.03H2298.4H2236.77H2177.43H2115.8H2054.17H1994.83H1933.2H1871.57H1812.23H1750.6H1688.97H1629.63H1568H1506.37H1447.03H1385.4H1323.77H1264.43H1202.8H1141.17H1081.83H1020.2H958.573H899.228H837.6H775.973H716.628H655H593.373H534.028H472.4H410.773H351.428H289.8H228.173H168.828H107.2H45.5725H-13.7725H-75.4H-137.027H-196.372H-258Z" fill="url(#paint0_radial_64_210)"/>
<path fill-rule="evenodd" clip-rule="evenodd" d="M-15 291V157.8H3.84167V261.4H23.2217V187.4H42.0633V157.8H60.905V217H79.7467V246.6H99.1267V157.8H117.968V276.2H136.81V217H156.19V157.8H175.032V246.6H193.873V217H213.253V231.8H232.095V157.8H250.937V246.6H269.778V187.4H289.158V231.8H308V187.4H326.842V276.2H346.222V172.6H365.063V157.8H383.905V231.8H402.747V143H422.127V202.2H440.968V172.6H459.81V261.4H479.19V187.4H498.032V246.6H516.873V261.4H536.253V187.4H555.095V187.4H573.937V217H592.778V217H612.158V246.6H631V291H612.158V291H592.778V291H573.937V291H555.095V291H536.253V291H516.873V291H498.032V291H479.19V291H459.81V291H440.968V291H422.127V291H402.747V291H383.905V291H365.063V291H346.222V291H326.842V291H308V291H289.158V291H269.778V291H250.937V291H232.095V291H213.253V291H193.873V291H175.032V291H156.19V291H136.81V291H117.968V291H99.1267V291H79.7467V291H60.905V291H42.0633V291H23.2217V291H3.84167V291H-15V291Z" fill="#285A88"/>
<path d="M1138.76 222.533C1138.76 222.533 1139.36 221.122 1140.65 220.634C1141.93 220.145 1144.08 220.071 1144.08 220.071L1147.68 254.964L1144.76 272.185C1144.76 272.185 1143.9 274.222 1141.66 274.296C1139.44 274.37 1120.89 274.296 1119.25 274.296C1117.62 274.296 1117.11 272.535 1117.03 271.761C1116.94 270.986 1116.97 269.687 1116.97 269.687L1109.05 269.659C1109.05 269.659 1108.59 272.425 1109.35 274.167C1110.02 275.679 1110.61 276.886 1110.6 277.403C1110.59 278.14 1109.4 278.878 1108.03 278.813C1106.65 278.739 1104.6 277.264 1103.22 276.352C1101.85 275.439 1079.85 275.651 1079.85 275.651C1079.85 275.651 1078.79 277.255 1077.61 278.223C1076.9 278.804 1075.75 279.09 1074.72 279.09C1073.68 279.09 1072.4 277.965 1072.66 277.191C1072.92 276.416 1074.09 274.637 1074.29 272.904C1074.38 272.12 1074.27 269.936 1073.79 269.576C1073.68 269.493 1071.97 269.539 1070.37 269.401C1067.65 269.17 1064.93 266.285 1064.59 264.036C1064.24 261.786 1064.5 254.678 1064.5 254.678L1138.76 222.533Z" fill="#B3AFAF"/>
<path d="M1145.48 261.602H1064.44C1064.44 261.602 1064.25 263.464 1064.65 264.662C1064.85 265.298 1065.21 265.896 1065.69 266.423L1145.02 266.414L1145.48 261.602V261.602Z" fill="#9A9A9A"/>
<path d="M1173.91 258.586L1191.06 262.938L1199.64 260.513C1199.64 260.513 1199.33 247.294 1199.23 245.957C1199.13 244.62 1198.73 243.449 1197.18 242.61C1195.65 241.771 1191.37 239.679 1191.37 239.679C1191.37 239.679 1178.19 222.357 1177.07 221.103C1175.94 219.849 1174.56 218.319 1171.29 218.07C1168.01 217.821 1147.81 218.024 1145.97 218.107C1144.14 218.19 1142.77 218.872 1142.77 222.136C1142.77 225.399 1142.87 250.308 1142.97 251.562C1143.07 252.816 1150.73 257.416 1150.73 257.416L1173.91 258.586Z" fill="#E0E0E0"/>
<path d="M1148.93 274.433C1148.93 274.433 1147.29 274.47 1146.16 274.341C1145.02 274.212 1143.31 273.281 1143.23 271.078C1143.19 269.769 1142.97 251.562 1142.97 251.562L1173.57 251.617L1183.47 260.494L1199.64 260.513C1199.64 260.513 1199.71 265.722 1199.66 267.114C1199.62 268.515 1190.82 271.566 1190.82 271.566L1148.93 274.433V274.433Z" fill="#DC0D28"/>
<path d="M1199.66 267.114H1181.23C1181.23 267.114 1177.28 260.661 1165.93 260.772C1149.26 260.938 1148.92 274.425 1148.92 274.425H1192.34C1194.79 274.425 1198.27 273.761 1199.16 271.235C1199.92 269.115 1199.66 267.114 1199.66 267.114V267.114Z" fill="#B10A1B"/>
<path d="M1188.37 243.303C1188.37 243.303 1188.37 241.8 1189.58 241.745C1190.78 241.689 1192.11 242.307 1193.31 243.146C1194.58 244.031 1195.21 244.833 1195.46 245.534C1195.84 246.575 1195.53 247.506 1193.56 247.552C1191.15 247.617 1152.92 247.414 1151.16 247.294C1148.94 247.138 1147.61 246.363 1147.68 245.008C1147.74 243.708 1148.88 243.293 1153.63 243.247C1158.38 243.201 1188.37 243.303 1188.37 243.303V243.303Z" fill="white"/>
<path d="M1199.27 247.699C1199.27 247.699 1187.79 247.404 1187.54 247.635C1187.19 247.976 1187.12 252.419 1187.25 253.092C1187.37 253.765 1188.45 254.236 1189.78 254.282C1191.11 254.328 1199.46 254.438 1199.46 254.438L1199.27 247.699V247.699Z" fill="#FDEDC5"/>
<path d="M1151.98 241.689C1150.2 241.689 1149.57 240.029 1149.57 238.886V224.422C1149.57 223.279 1150.46 222.661 1153.24 222.551C1156.03 222.449 1168.74 222.569 1170.13 222.606C1172.28 222.661 1173.75 223.436 1175.7 225.667C1176.97 227.114 1184.82 237.752 1185.45 238.628C1186.08 239.513 1186.84 241.845 1183.54 241.892C1180.14 241.947 1151.98 241.689 1151.98 241.689V241.689Z" fill="#5F6369"/>
<path d="M1181.91 239.255H1153.56C1152.99 239.255 1152.48 238.739 1152.48 238.112C1152.48 237.485 1152.44 227.695 1152.42 227.114C1152.35 225.51 1153.81 225.141 1155.07 225.197C1156.34 225.252 1169.15 225.215 1169.9 225.243C1171.35 225.298 1172.79 226.893 1174.05 228.469C1175.57 230.378 1181.91 239.255 1181.91 239.255V239.255Z" fill="#AFE3FB"/>
<path d="M1181.48 240.97C1181.35 243.302 1176.8 245.22 1175.65 245.275C1174.51 245.33 1173.81 243.514 1173.69 241.071C1173.57 238.628 1174.76 236.609 1175.72 236.609C1176.66 236.609 1181.58 238.997 1181.48 240.97Z" fill="#5F6369"/>
<path d="M1180.49 275.899C1180.4 280.509 1175.92 287.137 1166.18 287.183C1156.43 287.229 1151.37 281.108 1151.69 274.83C1152 268.45 1158.04 263.942 1166.74 264.145C1174.87 264.348 1180.61 269.529 1180.49 275.899V275.899Z" fill="#4E433D"/>
<path d="M1173.52 275.633C1173.48 278.057 1171.13 281.561 1166 281.588C1160.87 281.616 1158.39 278.574 1158.55 275.264C1158.72 271.899 1161.99 269.392 1166.29 269.447C1170.56 269.493 1173.58 272.268 1173.52 275.633V275.633Z" fill="#C8C8C8"/>
<path d="M1106.24 275.899C1106.15 280.509 1101.67 287.137 1091.93 287.183C1082.18 287.229 1077.12 281.108 1077.44 274.83C1077.75 268.45 1083.79 263.942 1092.49 264.145C1100.62 264.348 1106.36 269.529 1106.24 275.899V275.899Z" fill="#4E433D"/>
<path d="M1099.27 275.633C1099.23 278.057 1096.88 281.561 1091.75 281.588C1086.63 281.616 1084.14 278.574 1084.3 275.264C1084.47 271.899 1087.74 269.392 1092.04 269.447C1096.31 269.493 1099.33 272.268 1099.27 275.633V275.633Z" fill="#C8C8C8"/>
<path d="M1140.03 199.384C1140.03 196.968 1138.73 196 1136.37 196.102C1134.01 196.194 1069.26 195.908 1067.15 195.908C1065.03 195.908 1064.2 197.743 1064.2 198.803C1064.2 199.863 1064.61 253.645 1064.52 254.687C1064.44 255.729 1064.79 257.176 1067.02 257.37C1069.26 257.563 1135.66 257.462 1137.08 257.37C1138.5 257.277 1140.26 256.309 1140.26 254.954C1140.26 253.59 1140.03 200.637 1140.03 199.384V199.384Z" fill="#D16E1D"/>
<path d="M1134.13 201.504C1134.13 202.758 1134.6 249.728 1134.6 250.889C1134.6 252.051 1133.89 253.406 1132 253.406C1130.11 253.406 1072.09 253.498 1070.91 253.406C1069.73 253.314 1069.02 252.733 1068.91 251.184C1068.8 249.636 1068.8 202.482 1068.8 200.933C1068.8 199.384 1070.69 199.292 1072.69 199.292C1074.69 199.292 1131.41 199.384 1132.25 199.486C1133.07 199.569 1134.13 200.251 1134.13 201.504V201.504Z" fill="#F5B03A"/>
<path d="M1120.24 255.046C1120.31 238.038 1120.46 198.37 1120.22 197.291L1118.56 197.54L1116.88 197.706C1117.04 199.227 1116.96 232.82 1116.87 255.037L1120.24 255.046Z" fill="#D16E1D"/>
<path d="M1103.03 197.448H1099.65V255.139H1103.03V197.448Z" fill="#D16E1D"/>
<path d="M1086 197.494H1082.62V254.899H1086V197.494Z" fill="#D16E1D"/>
<path d="M762.646 200.405H708.654C701.003 200.405 694.799 208.18 694.799 217.769V234.249L691.53 235.179L689.133 251.624L690.789 268.223L707.876 268.122C708.144 268.146 708.386 268.223 708.652 268.223H762.644C770.302 268.223 776.504 260.452 776.504 250.86V217.771C776.508 208.182 770.302 200.405 762.646 200.405" fill="#F48020"/>
<path d="M762.646 200.438H708.654C701.003 200.438 694.799 208.211 694.799 217.802V234.284L691.53 235.215L689.133 251.657L690.283 263.21L691.53 254.683L694.799 253.753V237.272C694.799 227.684 701.001 219.909 708.654 219.909H762.646C770.304 219.909 776.506 227.686 776.506 237.272V217.8C776.506 208.211 770.304 200.438 762.646 200.438" fill="#F9A425"/>
<path d="M687.459 219.921H676.463C667.277 220.502 649.007 224.584 649.357 247.841V256.402C649.357 263.726 652.644 269.661 656.69 269.661H687.455C691.506 269.661 694.795 263.728 694.795 256.402V233.177C694.795 225.854 691.508 219.915 687.455 219.915" fill="#E3E4E3"/>
<path d="M690.4 211.739H683.809C678.313 212.045 667.372 214.164 667.581 226.243V230.682C667.581 234.488 669.556 237.57 671.974 237.57H690.396C692.817 237.57 694.788 234.488 694.788 230.682V218.631C694.792 214.825 692.819 211.739 690.398 211.739" fill="#E3E4E3"/>
<path d="M673.436 226.388H667.922C663.318 226.721 654.157 229.057 654.335 242.362V247.259C654.335 251.452 655.978 254.852 658.011 254.852H673.436C675.469 254.852 677.12 251.452 677.12 247.259V233.974C677.12 229.785 675.469 226.39 673.436 226.39" fill="#A2C2CA"/>
<path d="M665.506 243.026C665.238 237.418 665.633 231.652 667.338 226.369C662.706 226.726 653.661 229.114 653.835 242.343V247.241C653.835 251.434 655.482 254.833 657.515 254.833H667.538C666.355 251.283 665.713 247.356 665.506 243.034" fill="#83AFB7"/>
<path d="M690.578 273.164C690.575 276.814 689.077 280.314 686.413 282.894C683.749 285.474 680.138 286.924 676.373 286.924C672.609 286.921 669.001 285.47 666.34 282.89C663.679 280.31 662.183 276.812 662.18 273.164C662.181 269.515 663.676 266.015 666.338 263.434C668.999 260.853 672.608 259.402 676.373 259.4C678.238 259.4 680.084 259.755 681.808 260.447C683.531 261.138 685.097 262.152 686.416 263.43C687.735 264.708 688.781 266.226 689.495 267.896C690.21 269.566 690.577 271.356 690.578 273.164" fill="white"/>
<path d="M688.06 273.164C688.057 276.167 686.825 279.045 684.634 281.167C682.444 283.289 679.473 284.481 676.376 284.481C673.282 284.477 670.315 283.284 668.126 281.162C665.938 279.041 664.707 276.164 664.703 273.164C664.744 270.187 665.992 267.346 668.178 265.255C670.364 263.164 673.311 261.991 676.382 261.991C679.452 261.991 682.4 263.164 684.585 265.255C686.771 267.346 688.019 270.187 688.06 273.164" fill="#243438"/>
<path d="M683.949 273.006C683.949 274.953 683.152 276.819 681.732 278.196C680.312 279.572 678.387 280.345 676.379 280.345C674.371 280.345 672.446 279.572 671.026 278.196C669.606 276.819 668.809 274.953 668.809 273.006C668.865 271.096 669.687 269.282 671.101 267.95C672.514 266.618 674.408 265.873 676.379 265.873C678.35 265.873 680.244 266.618 681.657 267.95C683.071 269.282 683.893 271.096 683.949 273.006Z" fill="#969796"/>
<path d="M749.007 274.944C749.006 278.122 747.704 281.17 745.385 283.418C743.067 285.665 739.923 286.928 736.644 286.929C733.366 286.927 730.223 285.664 727.905 283.416C725.587 281.169 724.283 278.122 724.281 274.944C724.282 271.765 725.585 268.717 727.904 266.47C730.222 264.222 733.366 262.959 736.644 262.958C738.268 262.958 739.876 263.268 741.376 263.87C742.875 264.473 744.238 265.356 745.386 266.469C746.534 267.581 747.445 268.903 748.066 270.357C748.688 271.811 749.007 273.37 749.007 274.944" fill="white"/>
<path d="M746.814 274.944C746.814 277.557 745.743 280.063 743.837 281.911C741.931 283.759 739.346 284.797 736.651 284.797C733.956 284.797 731.371 283.759 729.465 281.911C727.559 280.063 726.488 277.557 726.488 274.944C726.487 273.651 726.749 272.37 727.259 271.175C727.768 269.98 728.516 268.894 729.459 267.979C730.402 267.064 731.521 266.338 732.754 265.843C733.986 265.347 735.307 265.092 736.641 265.092C737.976 265.09 739.299 265.344 740.533 265.838C741.768 266.333 742.889 267.058 743.834 267.973C744.779 268.888 745.528 269.975 746.04 271.171C746.551 272.367 746.814 273.649 746.814 274.944" fill="#243438"/>
<path d="M743.244 274.811C743.244 275.651 743.074 276.482 742.742 277.258C742.411 278.034 741.925 278.738 741.312 279.332C740.7 279.925 739.973 280.396 739.173 280.717C738.373 281.038 737.515 281.203 736.649 281.203C735.346 281.202 734.073 280.826 732.991 280.124C731.908 279.422 731.064 278.424 730.567 277.257C730.069 276.09 729.939 274.806 730.193 273.567C730.448 272.328 731.076 271.191 731.997 270.298C732.918 269.405 734.092 268.797 735.37 268.551C736.647 268.304 737.972 268.43 739.175 268.913C740.379 269.396 741.408 270.215 742.132 271.264C742.856 272.314 743.243 273.549 743.244 274.811" fill="#969796"/>
<path d="M774.3 274.812C774.298 276.384 773.977 277.941 773.355 279.394C772.733 280.846 771.822 282.166 770.674 283.277C769.526 284.388 768.164 285.269 766.664 285.87C765.165 286.47 763.559 286.779 761.936 286.778C760.314 286.776 758.708 286.465 757.21 285.862C755.712 285.259 754.351 284.376 753.205 283.263C752.058 282.15 751.15 280.829 750.53 279.376C749.911 277.922 749.592 276.365 749.594 274.792C749.596 271.616 750.901 268.571 753.219 266.327C755.538 264.083 758.681 262.824 761.957 262.826C765.233 262.829 768.374 264.093 770.689 266.341C773.003 268.589 774.302 271.636 774.3 274.812" fill="white"/>
<path d="M772.101 274.811C772.098 277.425 771.025 279.931 769.118 281.778C767.21 283.625 764.624 284.663 761.928 284.664C759.233 284.664 756.648 283.626 754.742 281.778C752.836 279.93 751.766 277.424 751.766 274.811C751.766 272.198 752.836 269.692 754.742 267.845C756.648 265.997 759.233 264.959 761.928 264.959C763.264 264.958 764.586 265.212 765.82 265.707C767.054 266.202 768.175 266.927 769.12 267.842C770.065 268.757 770.814 269.844 771.326 271.039C771.837 272.235 772.101 273.517 772.101 274.811" fill="#243438"/>
<path d="M768.521 274.677C768.536 275.525 768.377 276.368 768.053 277.156C767.729 277.944 767.246 278.662 766.632 279.267C766.019 279.873 765.287 280.353 764.48 280.682C763.673 281.01 762.806 281.179 761.931 281.179C761.055 281.179 760.189 281.01 759.382 280.682C758.575 280.353 757.843 279.873 757.229 279.267C756.616 278.662 756.133 277.944 755.809 277.156C755.484 276.368 755.325 275.525 755.341 274.677C755.371 273.002 756.079 271.405 757.312 270.231C758.544 269.057 760.203 268.399 761.931 268.399C763.659 268.399 765.318 269.057 766.55 270.231C767.783 271.405 768.49 273.002 768.521 274.677" fill="#969796"/>
<path d="M653.82 261.911C653.82 265.248 652.428 267.957 650.707 267.957C648.988 267.957 647.594 265.248 647.594 261.911V261.776C647.594 258.442 648.988 255.741 650.707 255.741C652.428 255.741 653.82 258.442 653.82 261.776V261.911Z" fill="#F1F1F1"/>
<path d="M777.404 254.918C777.404 258.255 776.013 260.956 774.289 260.956C772.572 260.956 771.176 258.255 771.176 254.918V254.787C771.176 251.445 772.572 248.744 774.289 248.744C776.015 248.744 777.404 251.445 777.404 254.787V254.918Z" fill="#DF394C"/>
<defs>
<radialGradient id="paint0_radial_64_210" cx="0" cy="0" r="1" gradientUnits="userSpaceOnUse" gradientTransform="translate(1111.5 145.5) rotate(90) scale(145.5 1369.5)">
<stop stop-color="#83AD5F"/>
<stop offset="1" stop-color="#5D8F32"/>
</radialGradient>
</defs>
</svg>
